<svg version="1.1" id="Layer_1" xmlns="http://www.w3.org/2000/svg" xmlns:xlink="http://www.w3.org/1999/xlink" x="0px" y="0px"
	 width="100%" viewBox="0 0 1920 1080" enable-background="new 0 0 1920 1080" xml:space="preserve">
<path fill="#FF0000" opacity="1.000000" stroke="none" 
	d="
M1513.334473,302.000153 
	C1513.334351,459.481720 1513.239746,616.463440 1513.468506,773.444702 
	C1513.493530,790.641541 1508.526855,805.272766 1496.162231,817.065125 
	C1486.040405,826.718384 1473.878296,832.064331 1459.643433,832.064087 
	C1177.343262,832.059143 895.043030,832.027710 612.742859,832.115662 
	C588.984680,832.123047 568.332581,816.167236 561.685303,794.271851 
	C560.112854,789.092346 559.109924,783.512817 559.106995,778.116577 
	C558.981689,546.977112 559.128113,315.837402 558.828491,84.698257 
	C558.792969,57.275116 585.002686,30.434736 612.574951,30.870100 
	C613.740906,30.888512 614.907715,30.836666 616.074158,30.836658 
	C896.207947,30.834826 1176.341797,30.857653 1456.475586,30.775028 
	C1472.548218,30.770287 1486.370483,35.865593 1497.536621,47.293232 
	C1508.507202,58.520813 1513.514282,72.059235 1513.451782,88.025330 
	C1513.173218,159.182663 1513.333008,230.341721 1513.334473,302.000153 
M1039.513916,598.984192 
	C1039.513916,598.984192 1039.500854,599.030334 1040.193481,599.258057 
	C1045.981201,609.156250 1051.725220,619.080566 1057.610840,628.920166 
	C1058.359009,630.170959 1059.833130,631.842041 1060.994141,631.860535 
	C1074.087524,632.069092 1087.185425,631.992615 1100.932617,631.992615 
	C1100.233521,630.702576 1099.903931,629.991272 1099.485352,629.336853 
	C1079.298218,597.779968 1059.135254,566.207336 1038.807617,534.741211 
	C1037.868774,533.287903 1035.462524,532.023743 1033.707764,531.980896 
	C1023.217163,531.725281 1012.713989,531.996887 1002.222107,531.769897 
	C998.942810,531.698914 997.194153,532.836182 995.468994,535.551392 
	C977.075745,564.499634 958.534058,593.353577 940.040833,622.238464 
	C938.101868,625.266968 936.213196,628.327759 933.906433,632.002441 
	C941.519409,632.002441 948.300720,632.039734 955.081482,631.991394 
	C961.234558,631.947510 968.570923,633.843018 973.206604,631.142700 
	C977.841919,628.442810 979.721313,621.072510 982.909058,615.810242 
	C986.312256,610.192505 989.832764,604.645935 993.474854,598.998352 
	C993.474854,598.998352 993.651123,598.937561 993.808594,599.667542 
	C1001.257935,612.759033 1008.707214,625.850464 1016.568848,639.666626 
	C1024.495239,625.580627 1031.988037,612.265198 1039.513916,598.984192 
M994.943298,475.525757 
	C1002.973328,476.667694 1011.038879,478.977722 1019.026917,478.735382 
	C1044.326782,477.967865 1069.598267,476.258698 1094.879639,474.890656 
	C1121.823975,473.432587 1148.771973,472.030731 1175.703735,470.367279 
	C1178.932373,470.167847 1180.015137,471.239899 1180.994873,473.941772 
	C1190.735596,500.802795 1213.222046,506.222076 1238.509033,499.399506 
	C1251.964722,495.769073 1259.512085,484.160706 1265.508545,472.145569 
	C1267.052124,469.052734 1268.763306,467.929932 1272.253540,467.839569 
	C1307.062622,466.938354 1341.864990,465.776306 1376.673462,464.845795 
	C1380.399414,464.746216 1381.896729,463.886749 1381.925659,459.800842 
	C1382.017334,446.808441 1382.301636,433.804169 1383.050659,420.835632 
	C1383.389526,414.969849 1382.312134,410.052032 1378.134399,405.889130 
	C1374.875854,402.642151 1373.787720,398.806244 1374.098999,394.142181 
	C1374.619873,386.336151 1374.729004,378.490143 1374.701904,370.662018 
	C1374.459229,300.676117 1374.281494,230.689423 1373.738770,160.705658 
	C1373.638306,147.749084 1372.435913,134.750977 1370.910034,121.870613 
	C1369.570679,110.565506 1366.801514,99.648354 1357.237061,91.737411 
	C1352.923828,88.169823 1349.222046,83.774734 1345.650635,79.420547 
	C1341.094971,73.866501 1335.884155,69.084282 1328.935303,67.311691 
	C1317.839355,64.481201 1306.651123,61.224030 1295.321167,60.251686 
	C1265.141113,57.661583 1234.889771,55.366528 1204.621338,54.452023 
	C1141.787231,52.553612 1079.012817,54.786625 1016.390686,60.281788 
	C968.281982,64.503372 920.571838,71.774887 873.094543,80.538361 
	C838.416748,86.939301 803.735962,93.343697 769.151062,100.222107 
	C743.233765,105.376663 717.438843,111.164055 691.666199,117.008286 
	C688.143616,117.807076 684.770691,120.191978 681.834229,122.489075 
	C669.425781,132.195923 665.117004,145.389801 665.228638,160.770081 
	C665.653137,219.258362 665.794739,277.748688 666.161133,336.237488 
	C666.182068,339.585114 665.239380,341.821594 662.578430,343.811188 
	C661.005432,344.987366 659.028748,346.954498 658.977905,348.619202 
	C658.652954,359.258484 658.812256,369.912537 658.812256,381.018066 
	C659.847168,381.508820 661.482422,382.313080 663.140747,383.066284 
	C680.405945,390.907593 697.700684,398.684967 714.900696,406.666534 
	C716.534241,407.424561 718.483948,409.296692 718.752869,410.907654 
	C720.466431,421.173035 724.742493,426.195831 734.080688,428.061798 
	C741.791382,429.602509 747.220642,426.777679 752.216370,418.100769 
	C753.744507,415.446625 755.091797,414.939392 758.111572,415.698547 
	C799.236694,426.036957 840.395813,436.241028 881.587708,446.310028 
	C885.051758,447.156769 886.085754,448.955994 887.221558,452.080383 
	C889.700989,458.900452 892.101501,466.064484 896.210999,471.908997 
	C904.020203,483.015228 921.754456,490.006104 936.075073,473.999115 
	C937.740295,472.137695 939.589355,470.348663 940.830017,468.221008 
	C942.663391,465.076782 944.857727,464.660126 948.279785,465.433472 
	C963.527710,468.879059 978.843445,472.025055 994.943298,475.525757 
M1113.335205,592.500000 
	C1113.335205,605.586060 1113.335205,618.672119 1113.335205,631.815430 
	C1127.747070,631.815430 1141.375977,631.815430 1155.718994,631.815430 
	C1155.718994,609.813599 1155.718994,587.987549 1155.718994,564.796326 
	C1157.913696,567.210938 1159.149536,568.476807 1160.281128,569.829834 
	C1174.284424,586.572632 1188.886230,602.864990 1202.015503,620.268005 
	C1208.991943,629.515137 1216.422607,633.283325 1227.858765,632.228577 
	C1239.048706,631.196472 1250.408325,632.003967 1261.880127,632.003967 
	C1261.880127,598.422974 1261.880127,565.359924 1261.880127,532.158813 
	C1247.893677,532.158813 1234.189575,532.158813 1219.975098,532.158813 
	C1219.975098,554.214844 1219.975098,575.909546 1219.975098,598.557556 
	C1218.271973,596.740112 1217.235229,595.733459 1216.310791,594.632446 
	C1200.024780,575.237366 1183.670288,555.898560 1167.554932,536.362671 
	C1164.737793,532.947632 1161.856689,531.592957 1157.447510,531.690674 
	C1144.621460,531.974915 1131.785278,531.782043 1118.953003,531.802551 
	C1117.199829,531.805359 1115.446899,531.958069 1113.335449,532.058411 
	C1113.335449,552.222168 1113.335449,571.861084 1113.335205,592.500000 
M917.010010,602.489685 
	C914.090027,600.487183 911.170044,598.484680 907.990906,596.304382 
	C917.041260,592.211304 923.653992,586.307922 926.038208,576.566223 
	C930.523865,558.237854 922.996826,543.091370 904.940430,537.653748 
	C894.234497,534.429626 882.786438,532.595886 871.605103,532.240173 
	C845.633789,531.413879 819.621887,531.856934 793.626404,531.817017 
	C792.540100,531.815369 791.453247,532.130005 790.520142,532.273682 
	C790.520142,565.690125 790.520142,598.741943 790.520142,631.725281 
	C804.527832,631.725281 818.133301,631.725281 832.325562,631.725281 
	C832.325562,622.068848 832.325562,612.675476 832.325562,603.158020 
	C842.900574,603.158020 852.906067,602.757996 862.865540,603.263489 
	C874.256714,603.841553 879.569885,608.588196 882.782471,619.538818 
	C883.716675,622.723206 884.497620,625.981384 885.789673,629.018188 
	C886.320496,630.265869 888.002625,631.847900 889.184448,631.867554 
	C901.642639,632.074097 914.105530,631.995300 926.468323,631.995300 
	C925.249329,625.779663 924.476990,619.817322 922.823059,614.110535 
	C921.696106,610.222107 919.336243,606.691040 917.010010,602.489685 
M1331.575195,529.932617 
	C1325.636963,530.653137 1319.590088,530.888000 1313.781250,532.186951 
	C1297.514648,535.824036 1284.931885,544.119446 1280.011353,561.102600 
	C1277.218994,570.740479 1280.369507,579.795471 1289.043701,584.817810 
	C1293.848633,587.599915 1299.312744,589.957947 1304.744385,590.800232 
	C1317.379150,592.759583 1330.183350,593.607422 1342.900024,595.069946 
	C1347.327393,595.579224 1351.699097,596.571350 1356.237915,597.367798 
	C1352.653809,608.628723 1333.707153,609.767273 1326.760864,602.990173 
	C1324.155884,600.448669 1321.554810,599.960144 1318.313232,600.043762 
	C1313.486816,600.168152 1308.654785,600.075989 1303.825195,600.075989 
	C1295.897095,600.075989 1287.969116,600.075989 1279.402222,600.075989 
	C1280.207642,602.818481 1280.639893,604.913086 1281.425537,606.865479 
	C1286.719604,620.021362 1297.081177,627.424072 1310.279297,630.754150 
	C1329.632080,635.637207 1349.227173,635.674622 1368.609741,630.905273 
	C1383.590698,627.219055 1394.679810,618.662231 1399.360596,603.248047 
	C1402.526733,592.820801 1399.641479,584.280212 1390.279541,578.812988 
	C1385.896729,576.253357 1380.959473,573.959412 1376.015015,573.175842 
	C1362.241455,570.993164 1348.327026,569.708618 1334.481323,567.966248 
	C1330.865601,567.511230 1327.297363,566.679565 1323.416138,565.967468 
	C1327.964722,556.606995 1342.645874,553.075500 1350.869019,559.724915 
	C1355.846680,563.749939 1360.616211,563.781433 1365.998535,563.794800 
	C1372.826660,563.811829 1379.654785,563.798950 1386.482910,563.798950 
	C1390.891724,563.798950 1395.300415,563.798889 1399.994507,563.798889 
	C1399.774292,562.443970 1399.737549,561.791138 1399.558716,561.179810 
	C1395.048340,545.764893 1384.297852,536.376648 1369.168823,533.298035 
	C1357.228760,530.868286 1344.779053,530.943115 1331.575195,529.932617 
M874.966675,736.500000 
	C874.966675,750.256348 874.966675,764.012695 874.966675,777.597534 
	C886.624817,777.597534 897.669128,777.597534 909.164307,777.597534 
	C909.164307,759.846191 909.164307,742.499573 909.164307,724.294250 
	C911.175354,726.649231 912.576294,728.259460 913.944641,729.896851 
	C926.440125,744.849243 938.900269,759.831482 951.470337,774.720886 
	C952.643677,776.110840 954.483948,777.827759 956.045593,777.859253 
	C968.674866,778.114319 981.311523,778.002319 994.094482,778.002319 
	C994.094482,751.072021 994.094482,724.494080 994.094482,697.880005 
	C982.796509,697.880005 971.775208,697.880005 960.263550,697.880005 
	C960.263550,715.495667 960.263550,732.686707 960.263550,750.984741 
	C958.327332,748.795593 957.130981,747.502014 955.999146,746.154297 
	C943.252747,730.976807 930.538879,715.771729 917.737183,700.641113 
	C916.634155,699.337463 914.983521,697.627380 913.559631,697.601074 
	C900.784912,697.364441 888.003967,697.462891 874.966675,697.462891 
	C874.966675,710.531067 874.966675,723.015503 874.966675,736.500000 
M1213.421509,747.838318 
	C1222.877075,742.621826 1226.138062,734.186584 1225.527466,723.946350 
	C1224.894409,713.333557 1219.182495,706.358887 1209.347900,702.705078 
	C1206.401001,701.610168 1203.370972,700.549500 1200.285645,700.046448 
	C1172.493408,695.515137 1144.498047,697.888550 1116.575684,697.750977 
	C1116.430054,697.750244 1116.283691,697.901306 1116.003662,698.055054 
	C1116.003662,724.539001 1116.003662,751.095886 1116.003662,777.817749 
	C1127.206421,777.817749 1138.135376,777.817749 1149.524414,777.817749 
	C1149.524414,770.223450 1149.524414,762.804932 1149.524414,755.221008 
	C1158.759888,755.221008 1167.562500,754.823914 1176.309692,755.349060 
	C1183.071655,755.755005 1187.557983,759.856018 1189.438110,766.537720 
	C1190.247192,769.413086 1190.865845,772.396851 1192.132446,775.064758 
	C1192.748047,776.361206 1194.635010,777.843811 1195.980225,777.877197 
	C1205.620239,778.116821 1215.269165,778.005310 1225.404541,778.005310 
	C1221.724365,767.449768 1224.300171,754.294739 1209.782959,749.779907 
	C1211.333008,748.916260 1212.057739,748.512451 1213.421509,747.838318 
M1235.232666,747.037842 
	C1238.589233,762.383972 1248.364990,771.771973 1263.069336,776.006042 
	C1282.231323,781.523743 1301.570312,781.572144 1320.558838,775.346130 
	C1338.060913,769.607544 1347.074951,756.417603 1347.137695,738.002075 
	C1347.200317,719.598450 1338.173340,705.975525 1320.900146,700.383423 
	C1300.899048,693.908081 1280.533936,693.907410 1260.534912,700.486206 
	C1247.348633,704.823975 1238.237549,713.861572 1235.609375,727.858948 
	C1234.494751,733.795227 1235.215576,740.076050 1235.232666,747.037842 
M861.339050,740.152649 
	C862.027283,719.363953 852.423218,705.285400 832.464905,699.526001 
	C814.022644,694.204102 795.271606,694.179504 776.844971,699.828064 
	C758.335815,705.501831 748.875244,718.617676 748.780701,737.579712 
	C748.685242,756.711365 758.269531,770.266357 776.834167,775.867004 
	C795.762573,781.577332 815.005737,781.604370 833.864563,775.687317 
	C850.546692,770.453369 860.214050,758.950317 861.339050,740.152649 
M756.499390,531.789734 
	C722.467896,531.789734 688.436340,531.789734 654.355347,531.789734 
	C654.355347,540.406372 654.355347,548.169739 654.355347,556.727539 
	C667.426941,556.727539 680.277893,556.727539 693.593323,556.727539 
	C693.593323,582.256470 693.593323,606.991211 693.593323,631.664429 
	C707.815308,631.664429 721.543518,631.664429 735.777588,631.664429 
	C735.777588,606.604858 735.777588,581.881104 735.777588,556.581543 
	C749.002747,556.581543 761.733521,556.581543 774.625488,556.581543 
	C774.625488,548.096069 774.625488,540.196472 774.625488,531.789612 
	C768.734497,531.789612 763.116638,531.789612 756.499390,531.789734 
M717.586365,774.138306 
	C728.762390,769.336670 736.443481,761.506836 739.610596,748.814209 
	C727.992371,748.814209 716.884216,748.773376 705.777649,748.887817 
	C704.837158,748.897461 703.567688,749.721924 703.024475,750.545959 
	C697.017334,759.656799 678.969116,760.134583 671.914795,755.115601 
	C668.230408,752.494080 664.827698,748.369934 663.204346,744.184937 
	C659.635925,734.985474 663.789551,724.813538 671.729858,720.409790 
	C680.771545,715.395142 695.726135,717.189758 702.047058,723.971313 
	C703.105835,725.107239 704.461853,726.776184 705.708130,726.800720 
	C716.911682,727.021545 728.121460,726.929749 739.721436,726.929749 
	C735.933838,712.500366 726.704956,704.192017 713.734131,700.119934 
	C694.487915,694.077759 674.964294,694.154724 655.708130,700.059937 
	C637.933960,705.510742 628.335571,718.930115 628.140625,737.286560 
	C627.942749,755.920227 637.292847,769.880676 655.137695,775.435974 
	C675.680115,781.830994 696.422119,781.822327 717.586365,774.138306 
M1073.500122,697.439087 
	C1051.263672,697.439087 1029.027100,697.439087 1006.830261,697.439087 
	C1006.830261,704.544922 1006.830261,710.811157 1006.830261,717.636536 
	C1017.314880,717.636536 1027.525635,717.636536 1038.244629,717.636536 
	C1038.244629,738.086609 1038.244629,757.977173 1038.244629,777.756409 
	C1049.706665,777.756409 1060.643921,777.756409 1072.062256,777.756409 
	C1072.062256,757.598511 1072.062256,737.688904 1072.062256,717.247437 
	C1082.775879,717.247437 1093.007202,717.247437 1103.161133,717.247437 
	C1103.161133,710.435547 1103.161133,704.168823 1103.161133,697.439148 
	C1093.417114,697.439148 1083.958740,697.439148 1073.500122,697.439087 
M1396.779297,758.032837 
	C1393.332275,758.310120 1394.228882,755.742859 1394.224731,753.955383 
	C1394.184204,736.969482 1394.200439,719.983337 1394.200439,702.997314 
	C1394.200439,701.253296 1394.200439,699.509216 1394.200439,697.790222 
	C1382.549683,697.790222 1371.643921,697.790222 1360.662964,697.790222 
	C1360.662964,724.681458 1360.662964,751.228516 1360.662964,777.685913 
	C1392.041992,777.685913 1423.090332,777.685913 1454.055054,777.685913 
	C1454.055054,770.980469 1454.055054,764.601196 1454.055054,758.035034 
	C1435.021118,758.035034 1416.377686,758.035034 1396.779297,758.032837 
z"/>
<path fill="#040303" opacity="1.000000" stroke="none" 
	d="
M994.538940,475.402527 
	C978.843445,472.025055 963.527710,468.879059 948.279785,465.433472 
	C944.857727,464.660126 942.663391,465.076782 940.830017,468.221008 
	C939.589355,470.348663 937.740295,472.137695 936.075073,473.999115 
	C921.754456,490.006104 904.020203,483.015228 896.210999,471.908997 
	C892.101501,466.064484 889.700989,458.900452 887.221558,452.080383 
	C886.085754,448.955994 885.051758,447.156769 881.587708,446.310028 
	C840.395813,436.241028 799.236694,426.036957 758.111572,415.698547 
	C755.091797,414.939392 753.744507,415.446625 752.216370,418.100769 
	C747.220642,426.777679 741.791382,429.602509 734.080688,428.061798 
	C724.742493,426.195831 720.466431,421.173035 718.752869,410.907654 
	C718.483948,409.296692 716.534241,407.424561 714.900696,406.666534 
	C697.700684,398.684967 680.405945,390.907593 663.140747,383.066284 
	C661.482422,382.313080 659.847168,381.508820 658.812256,381.018066 
	C658.812256,369.912537 658.652954,359.258484 658.977905,348.619202 
	C659.028748,346.954498 661.005432,344.987366 662.578430,343.811188 
	C665.239380,341.821594 666.182068,339.585114 666.161133,336.237488 
	C665.794739,277.748688 665.653137,219.258362 665.228638,160.770081 
	C665.117004,145.389801 669.425781,132.195923 681.834229,122.489075 
	C684.770691,120.191978 688.143616,117.807076 691.666199,117.008286 
	C717.438843,111.164055 743.233765,105.376663 769.151062,100.222107 
	C803.735962,93.343697 838.416748,86.939301 873.094543,80.538361 
	C920.571838,71.774887 968.281982,64.503372 1016.390686,60.281788 
	C1079.012817,54.786625 1141.787231,52.553612 1204.621338,54.452023 
	C1234.889771,55.366528 1265.141113,57.661583 1295.321167,60.251686 
	C1306.651123,61.224030 1317.839355,64.481201 1328.935303,67.311691 
	C1335.884155,69.084282 1341.094971,73.866501 1345.650635,79.420547 
	C1349.222046,83.774734 1352.923828,88.169823 1357.237061,91.737411 
	C1366.801514,99.648354 1369.570679,110.565506 1370.910034,121.870613 
	C1372.435913,134.750977 1373.638306,147.749084 1373.738770,160.705658 
	C1374.281494,230.689423 1374.459229,300.676117 1374.701904,370.662018 
	C1374.729004,378.490143 1374.619873,386.336151 1374.098999,394.142181 
	C1373.787720,398.806244 1374.875854,402.642151 1378.134399,405.889130 
	C1382.312134,410.052032 1383.389526,414.969849 1383.050659,420.835632 
	C1382.301636,433.804169 1382.017334,446.808441 1381.925659,459.800842 
	C1381.896729,463.886749 1380.399414,464.746216 1376.673462,464.845795 
	C1341.864990,465.776306 1307.062622,466.938354 1272.253540,467.839569 
	C1268.763306,467.929932 1267.052124,469.052734 1265.508545,472.145569 
	C1259.512085,484.160706 1251.964722,495.769073 1238.509033,499.399506 
	C1213.222046,506.222076 1190.735596,500.802795 1180.994873,473.941772 
	C1180.015137,471.239899 1178.932373,470.167847 1175.703735,470.367279 
	C1148.771973,472.030731 1121.823975,473.432587 1094.879639,474.890656 
	C1069.598267,476.258698 1044.326782,477.967865 1019.026917,478.735382 
	C1011.038879,478.977722 1002.973328,476.667694 994.538940,475.402527 
M1363.965210,192.500137 
	C1363.651245,171.103653 1363.337158,149.707169 1363.022217,128.255981 
	C1243.268555,127.254456 1124.248413,126.259079 1005.725708,125.267853 
	C1005.725708,181.381180 1005.725708,236.933899 1005.725708,292.110077 
	C1125.962036,292.110077 1245.476929,292.110077 1363.982666,292.110077 
	C1363.982666,258.765015 1363.982666,226.132507 1363.965210,192.500137 
M882.033936,405.489777 
	C882.064209,402.990723 882.008972,400.487183 882.138916,397.993317 
	C882.883484,383.705322 886.336914,370.376923 896.164368,359.396820 
	C904.106018,350.523682 912.279114,349.710602 922.259277,356.277924 
	C929.241455,360.872467 932.190918,367.895355 935.002625,375.274323 
	C935.002625,355.642639 935.002625,336.010956 935.002625,316.214417 
	C848.696960,308.385406 762.717590,300.586029 676.491455,292.764282 
	C676.491455,318.894836 676.974243,344.226227 676.235596,369.521973 
	C675.968750,378.659698 678.154297,383.695892 687.178467,386.588501 
	C695.580750,389.281799 703.412292,393.755615 711.933716,397.645844 
	C711.833069,395.570160 711.731140,394.252167 711.710938,392.932922 
	C711.484253,378.131012 710.833496,363.318115 711.198059,348.530396 
	C711.464661,337.714172 714.761292,328.088837 725.263977,322.131653 
	C734.594116,316.839569 739.441040,317.430725 745.402588,326.279480 
	C753.833557,338.793823 757.575134,352.809662 757.916382,367.719940 
	C758.204956,380.332977 757.975769,392.957886 757.975769,406.390747 
	C799.676575,417.340393 842.568665,428.602844 885.138123,439.780609 
	C884.071411,428.300262 883.057312,417.386078 882.033936,405.489777 
M993.964966,368.500000 
	C993.964966,286.781708 993.964966,205.063400 993.964966,123.253899 
	C977.254395,124.455162 961.324768,125.600288 945.583557,126.731873 
	C945.583557,235.190186 945.583557,343.306641 945.583557,451.678497 
	C961.867554,455.992493 977.701965,460.187408 993.964966,464.495850 
	C993.964966,432.460388 993.964966,400.980194 993.964966,368.500000 
M1005.306458,396.122162 
	C1005.306458,402.718994 1005.306458,409.315826 1005.306458,415.762146 
	C1125.941406,415.762146 1245.488403,415.762146 1365.282104,415.762146 
	C1364.526733,401.628052 1363.793213,387.906250 1363.033813,373.698853 
	C1243.418335,373.698853 1124.361450,373.698853 1005.302795,373.698853 
	C1005.302795,380.895081 1005.302795,388.036682 1005.306458,396.122162 
M1354.006958,108.539391 
	C1344.291748,84.999718 1327.305176,69.788765 1302.124512,65.063492 
	C1289.924561,62.774139 1277.406982,61.531452 1264.993408,61.165516 
	C1241.354736,60.468678 1217.687622,60.627453 1194.032227,60.636444 
	C1150.739746,60.652897 1107.411987,59.822590 1064.363159,65.985039 
	C1038.431152,69.697205 1019.546082,83.377106 1006.995300,106.088005 
	C1005.413696,108.949837 1004.622437,112.248436 1003.390869,115.542892 
	C1121.877930,119.103348 1239.266479,120.033386 1357.122314,117.082161 
	C1356.059448,114.207359 1355.148193,111.742470 1354.006958,108.539391 
M849.150757,295.299225 
	C877.579651,297.612457 906.008545,299.925659 934.124634,302.213440 
	C934.124634,287.426331 934.124634,273.501862 934.124634,259.244812 
	C847.973755,255.332291 762.390869,251.445572 676.797729,247.558365 
	C676.797729,259.364838 676.797729,270.278473 676.797729,281.561401 
	C734.120300,286.126251 791.173828,290.669678 849.150757,295.299225 
M1310.500000,301.110931 
	C1208.754028,301.110931 1107.008057,301.110931 1005.693115,301.110931 
	C1005.693115,309.017944 1005.693115,316.603333 1005.693115,324.012054 
	C1125.897949,324.012054 1245.454712,324.012054 1365.310791,324.012054 
	C1364.508423,316.126892 1363.757690,308.748322 1362.980713,301.112122 
	C1345.458374,301.112122 1328.479126,301.112122 1310.500000,301.110931 
M719.770386,114.181557 
	C718.469788,114.463821 717.173279,114.767197 715.867859,115.025040 
	C704.221008,117.325562 692.859497,120.404312 683.175171,127.709251 
	C677.428833,132.043732 673.976318,137.512222 675.059998,145.356934 
	C678.093323,145.084335 680.728088,144.892090 683.352417,144.604630 
	C703.380127,142.410873 723.396667,140.110367 743.434448,138.013412 
	C770.928406,135.136185 798.435303,132.382294 825.941589,129.624329 
	C858.253662,126.384521 890.565430,123.140129 922.887817,120.006149 
	C945.598206,117.804153 968.325195,115.771759 991.047913,113.698196 
	C993.523315,113.472305 995.154724,112.892166 996.016663,110.002350 
	C1000.032166,96.540016 1007.813049,85.428596 1018.738953,76.735153 
	C1024.617310,72.057838 1031.170410,68.228455 1037.976440,63.640831 
	C1027.542358,64.868492 1017.620117,65.740166 1007.793884,67.240349 
	C946.603088,76.582321 885.388123,85.781021 824.275208,95.611519 
	C789.631287,101.184250 755.166382,107.869484 719.770386,114.181557 
M918.919922,249.747238 
	C923.344421,249.747238 927.768860,249.747238 932.126099,249.747238 
	C932.126099,209.303955 932.126099,168.911728 932.126099,128.284561 
	C911.583923,129.797028 891.420227,131.281616 871.369019,132.757935 
	C871.369019,171.107208 871.369019,208.842392 871.369019,246.710159 
	C887.112427,247.711884 902.549377,248.694092 918.919922,249.747238 
M860.802734,181.500092 
	C860.802734,166.073593 860.802734,150.647095 860.802734,134.979324 
	C840.990173,136.772934 821.807068,138.509552 802.562744,140.251724 
	C802.562744,174.716507 802.562744,208.770569 802.562744,242.998123 
	C822.114563,243.745422 841.334412,244.480026 860.802734,245.224136 
	C860.802734,223.787064 860.802734,203.143585 860.802734,181.500092 
M755.637085,146.084671 
	C749.727966,146.748413 743.818848,147.412170 738.646484,147.993164 
	C738.646484,179.009155 738.646484,209.533722 738.646484,240.429260 
	C755.397705,240.429260 771.184570,240.429260 787.806152,240.429260 
	C787.806152,208.091202 787.806152,175.712067 787.806152,142.880646 
	C777.640320,143.904083 767.094421,144.965775 755.637085,146.084671 
M674.145325,221.497726 
	C674.145325,226.926239 674.145325,232.354752 674.145325,238.105652 
	C690.708496,238.105652 706.647827,238.105652 722.694092,238.105652 
	C722.694092,209.026871 722.694092,179.876129 722.694092,150.551895 
	C706.370483,151.633957 690.448975,152.689362 674.145325,153.770111 
	C674.145325,176.264771 674.145325,198.381561 674.145325,221.497726 
M1077.692139,342.078705 
	C1076.695068,340.752106 1075.821411,339.306946 1074.680054,338.118988 
	C1068.915161,332.119019 1061.897827,330.354919 1054.155151,333.135834 
	C1046.374390,335.930481 1042.253540,341.946808 1041.541992,350.129761 
	C1040.897949,357.536224 1045.423218,364.988251 1052.327026,368.384857 
	C1059.116943,371.725464 1067.698120,370.551849 1073.315918,365.514282 
	C1079.905518,359.605194 1081.444214,352.151306 1077.692139,342.078705 
M1118.075562,364.520477 
	C1125.450684,355.380341 1124.536011,343.469421 1115.939087,336.698883 
	C1107.812866,330.299042 1096.176880,331.336334 1089.491699,339.056519 
	C1082.882324,346.688843 1083.272217,358.165405 1090.380493,365.224518 
	C1098.020386,372.811584 1109.038818,372.738525 1118.075562,364.520477 
M1353.934326,361.572693 
	C1361.234863,354.564514 1362.767212,346.493866 1358.265381,338.762817 
	C1354.128174,331.657837 1345.939453,328.250702 1338.216187,330.525299 
	C1330.765503,332.719635 1326.391113,337.879181 1325.326660,345.410889 
	C1324.308472,352.614258 1327.202637,358.634247 1333.270264,362.503235 
	C1339.852539,366.700378 1346.745972,366.437347 1353.934326,361.572693 
M1315.527588,361.088135 
	C1322.407471,354.280365 1323.749756,346.212738 1319.268677,338.601959 
	C1315.119629,331.555359 1306.865723,328.236359 1299.151855,330.601410 
	C1291.736694,332.874878 1287.405273,337.992859 1286.452515,345.597809 
	C1285.546997,352.824860 1288.401855,358.750885 1294.552734,362.561005 
	C1301.410156,366.808746 1308.386597,366.364288 1315.527588,361.088135 
z"/>
<path fill="#030000" opacity="1.000000" stroke="none" 
	d="
M1113.335327,592.000000 
	C1113.335449,571.861084 1113.335449,552.222168 1113.335449,532.058411 
	C1115.446899,531.958069 1117.199829,531.805359 1118.953003,531.802551 
	C1131.785278,531.782043 1144.621460,531.974915 1157.447510,531.690674 
	C1161.856689,531.592957 1164.737793,532.947632 1167.554932,536.362671 
	C1183.670288,555.898560 1200.024780,575.237366 1216.310791,594.632446 
	C1217.235229,595.733459 1218.271973,596.740112 1219.975098,598.557556 
	C1219.975098,575.909546 1219.975098,554.214844 1219.975098,532.158813 
	C1234.189575,532.158813 1247.893677,532.158813 1261.880127,532.158813 
	C1261.880127,565.359924 1261.880127,598.422974 1261.880127,632.003967 
	C1250.408325,632.003967 1239.048706,631.196472 1227.858765,632.228577 
	C1216.422607,633.283325 1208.991943,629.515137 1202.015503,620.268005 
	C1188.886230,602.864990 1174.284424,586.572632 1160.281128,569.829834 
	C1159.149536,568.476807 1157.913696,567.210938 1155.718994,564.796326 
	C1155.718994,587.987549 1155.718994,609.813599 1155.718994,631.815430 
	C1141.375977,631.815430 1127.747070,631.815430 1113.335205,631.815430 
	C1113.335205,618.672119 1113.335205,605.586060 1113.335327,592.000000 
z"/>
<path fill="#020000" opacity="1.000000" stroke="none" 
	d="
M917.268799,602.744934 
	C919.336243,606.691040 921.696106,610.222107 922.823059,614.110535 
	C924.476990,619.817322 925.249329,625.779663 926.468323,631.995300 
	C914.105530,631.995300 901.642639,632.074097 889.184448,631.867554 
	C888.002625,631.847900 886.320496,630.265869 885.789673,629.018188 
	C884.497620,625.981384 883.716675,622.723206 882.782471,619.538818 
	C879.569885,608.588196 874.256714,603.841553 862.865540,603.263489 
	C852.906067,602.757996 842.900574,603.158020 832.325562,603.158020 
	C832.325562,612.675476 832.325562,622.068848 832.325562,631.725281 
	C818.133301,631.725281 804.527832,631.725281 790.520142,631.725281 
	C790.520142,598.741943 790.520142,565.690125 790.520142,532.273682 
	C791.453247,532.130005 792.540100,531.815369 793.626404,531.817017 
	C819.621887,531.856934 845.633789,531.413879 871.605103,532.240173 
	C882.786438,532.595886 894.234497,534.429626 904.940430,537.653748 
	C922.996826,543.091370 930.523865,558.237854 926.038208,576.566223 
	C923.653992,586.307922 917.041260,592.211304 907.990906,596.304382 
	C911.170044,598.484680 914.090027,600.487183 917.268799,602.744934 
M867.510376,556.922729 
	C855.816467,556.922729 844.122498,556.922729 832.569763,556.922729 
	C832.569763,564.192993 832.569763,571.067078 832.569763,577.815491 
	C845.099304,577.815491 857.214905,577.983459 869.320374,577.707703 
	C872.720520,577.630249 876.174500,576.498169 879.452820,575.399292 
	C883.090271,574.179932 885.025024,571.441650 885.019348,567.431213 
	C885.013733,563.458374 883.218811,560.574768 879.540710,559.405945 
	C875.937927,558.260986 872.129639,557.762756 867.510376,556.922729 
z"/>
<path fill="#020000" opacity="1.000000" stroke="none" 
	d="
M1332.065430,529.919067 
	C1344.779053,530.943115 1357.228760,530.868286 1369.168823,533.298035 
	C1384.297852,536.376648 1395.048340,545.764893 1399.558716,561.179810 
	C1399.737549,561.791138 1399.774292,562.443970 1399.994507,563.798889 
	C1395.300415,563.798889 1390.891724,563.798950 1386.482910,563.798950 
	C1379.654785,563.798950 1372.826660,563.811829 1365.998535,563.794800 
	C1360.616211,563.781433 1355.846680,563.749939 1350.869019,559.724915 
	C1342.645874,553.075500 1327.964722,556.606995 1323.416138,565.967468 
	C1327.297363,566.679565 1330.865601,567.511230 1334.481323,567.966248 
	C1348.327026,569.708618 1362.241455,570.993164 1376.015015,573.175842 
	C1380.959473,573.959412 1385.896729,576.253357 1390.279541,578.812988 
	C1399.641479,584.280212 1402.526733,592.820801 1399.360596,603.248047 
	C1394.679810,618.662231 1383.590698,627.219055 1368.609741,630.905273 
	C1349.227173,635.674622 1329.632080,635.637207 1310.279297,630.754150 
	C1297.081177,627.424072 1286.719604,620.021362 1281.425537,606.865479 
	C1280.639893,604.913086 1280.207642,602.818481 1279.402222,600.075989 
	C1287.969116,600.075989 1295.897095,600.075989 1303.825195,600.075989 
	C1308.654785,600.075989 1313.486816,600.168152 1318.313232,600.043762 
	C1321.554810,599.960144 1324.155884,600.448669 1326.760864,602.990173 
	C1333.707153,609.767273 1352.653809,608.628723 1356.237915,597.367798 
	C1351.699097,596.571350 1347.327393,595.579224 1342.900024,595.069946 
	C1330.183350,593.607422 1317.379150,592.759583 1304.744385,590.800232 
	C1299.312744,589.957947 1293.848633,587.599915 1289.043701,584.817810 
	C1280.369507,579.795471 1277.218994,570.740479 1280.011353,561.102600 
	C1284.931885,544.119446 1297.514648,535.824036 1313.781250,532.186951 
	C1319.590088,530.888000 1325.636963,530.653137 1332.065430,529.919067 
z"/>

<path fill="#020000" opacity="1.000000" stroke="none" 
	d="
M993.302002,599.068237 
	C989.832764,604.645935 986.312256,610.192505 982.909058,615.810242 
	C979.721313,621.072510 977.841919,628.442810 973.206604,631.142700 
	C968.570923,633.843018 961.234558,631.947510 955.081482,631.991394 
	C948.300720,632.039734 941.519409,632.002441 933.906433,632.002441 
	C936.213196,628.327759 938.101868,625.266968 940.040833,622.238464 
	C958.534058,593.353577 977.075745,564.499634 995.468994,535.551392 
	C997.194153,532.836182 998.942810,531.698914 1002.222107,531.769897 
	C1012.713989,531.996887 1023.217163,531.725281 1033.707764,531.980896 
	C1035.462524,532.023743 1037.868774,533.287903 1038.807617,534.741211 
	C1059.135254,566.207336 1079.298218,597.779968 1099.485352,629.336853 
	C1099.903931,629.991272 1100.233521,630.702576 1100.932617,631.992615 
	C1087.185425,631.992615 1074.087524,632.069092 1060.994141,631.860535 
	C1059.833130,631.842041 1058.359009,630.170959 1057.610840,628.920166 
	C1051.725220,619.080566 1045.981201,609.156250 1039.970215,598.815186 
	C1032.138550,584.868652 1024.530029,571.365051 1016.462097,557.045776 
	C1008.361877,571.331848 1000.771118,584.713745 993.206360,598.110291 
	C993.077332,598.338745 993.263123,598.744995 993.302002,599.068237 
z"/>
<path fill="#030000" opacity="1.000000" stroke="none" 
	d="
M756.999084,531.789673 
	C763.116638,531.789612 768.734497,531.789612 774.625488,531.789612 
	C774.625488,540.196472 774.625488,548.096069 774.625488,556.581543 
	C761.733521,556.581543 749.002747,556.581543 735.777588,556.581543 
	C735.777588,581.881104 735.777588,606.604858 735.777588,631.664429 
	C721.543518,631.664429 707.815308,631.664429 693.593323,631.664429 
	C693.593323,606.991211 693.593323,582.256470 693.593323,556.727539 
	C680.277893,556.727539 667.426941,556.727539 654.355347,556.727539 
	C654.355347,548.169739 654.355347,540.406372 654.355347,531.789734 
	C688.436340,531.789734 722.467896,531.789734 756.999084,531.789673 
z"/>
<path fill="#F90000" opacity="1.000000" stroke="none" 
	d="
M993.388428,599.033325 
	C993.263123,598.744995 993.077332,598.338745 993.206360,598.110291 
	C1000.771118,584.713745 1008.361877,571.331848 1016.462097,557.045776 
	C1024.530029,571.365051 1032.138550,584.868652 1039.623901,598.701294 
	C1039.500854,599.030334 1039.513916,598.984192 1038.990601,598.928284 
	C1023.528564,598.894104 1008.589844,598.915833 993.651123,598.937561 
	C993.651123,598.937561 993.474854,598.998352 993.388428,599.033325 
z"/>
<path fill="#030000" opacity="1.000000" stroke="none" 
	d="
M993.729858,599.302551 
	C1008.589844,598.915833 1023.528564,598.894104 1038.973999,598.911133 
	C1031.988037,612.265198 1024.495239,625.580627 1016.568848,639.666626 
	C1008.707214,625.850464 1001.257935,612.759033 993.729858,599.302551 
z"/>

<path fill="#F90000" opacity="1.000000" stroke="none" 
	d="
M867.960938,556.951660 
	C872.129639,557.762756 875.937927,558.260986 879.540710,559.405945 
	C883.218811,560.574768 885.013733,563.458374 885.019348,567.431213 
	C885.025024,571.441650 883.090271,574.179932 879.452820,575.399292 
	C876.174500,576.498169 872.720520,577.630249 869.320374,577.707703 
	C857.214905,577.983459 845.099304,577.815491 832.569763,577.815491 
	C832.569763,571.067078 832.569763,564.192993 832.569763,556.922729 
	C844.122498,556.922729 855.816467,556.922729 867.960938,556.951660 
z"/>
<path fill="#FF0404" opacity="1.000000" stroke="none" 
	d="
M1191.061768,723.077881 
	C1192.270264,729.224548 1191.100220,732.117126 1185.558472,732.989502 
	C1177.719971,734.223267 1169.709961,734.422119 1161.762939,734.886780 
	C1157.964111,735.108948 1154.141479,734.925049 1149.950684,734.925049 
	C1149.950684,729.166748 1149.950684,723.651611 1149.950684,717.011169 
	C1161.476440,717.625305 1172.875977,718.040039 1184.229858,718.997314 
	C1186.553833,719.193176 1188.706421,721.422607 1191.061768,723.077881 
z"/>
<path fill="#FF0202" opacity="1.000000" stroke="none" 
	d="
M1270.291748,728.587036 
	C1276.270996,717.649231 1286.028809,716.753662 1296.396240,718.028442 
	C1304.570068,719.033386 1310.061035,723.720032 1312.449097,731.715210 
	C1316.027588,743.696167 1309.485229,755.237244 1297.228394,757.313782 
	C1292.147461,758.174561 1286.484131,757.940735 1281.510132,756.613647 
	C1270.293091,753.620850 1265.634766,741.509216 1270.291748,728.587036 
z"/>
<path fill="#FF0303" opacity="1.000000" stroke="none" 
	d="
M805.933411,717.603882 
	C826.819641,717.697632 831.197327,737.181885 824.893188,748.307007 
	C820.551758,755.968445 811.023926,759.586792 799.963501,757.799561 
	C788.819336,755.998779 782.309937,748.203552 782.641113,737.055359 
	C782.967957,726.053162 790.093384,718.759155 801.483459,717.787659 
	C802.806885,717.674744 804.137878,717.649109 805.933411,717.603882 
z"/>
<path fill="#030303" opacity="1.000000" stroke="none" 
	d="
M1143.897949,137.737625 
	C1138.799072,140.559479 1133.887817,142.976089 1129.372681,145.986771 
	C1124.425659,149.285385 1123.702515,154.266434 1125.265747,159.727646 
	C1126.134277,162.762085 1127.217285,165.754272 1127.825928,168.840027 
	C1129.130493,175.452362 1126.639404,178.983643 1119.860962,178.927704 
	C1109.402466,178.841415 1098.954102,177.882996 1088.493164,177.591278 
	C1081.881348,177.406876 1075.189697,177.236389 1068.655273,178.043701 
	C1063.511719,178.679214 1062.319092,181.631882 1064.737671,186.329681 
	C1067.085571,190.890259 1070.095215,195.107651 1072.770142,199.502670 
	C1078.937866,209.637009 1078.168213,214.052017 1068.634155,220.865067 
	C1055.554077,230.212173 1040.375244,234.612946 1025.156860,238.841263 
	C1020.544800,240.122711 1015.877563,241.205460 1010.778625,242.494720 
	C1010.778625,205.992111 1010.778625,169.837769 1010.778625,133.419006 
	C1059.699951,133.419006 1108.532349,133.419006 1157.707886,133.419006 
	C1153.024048,134.873199 1148.642090,136.233688 1143.897949,137.737625 
z"/>
<path fill="#040404" opacity="1.000000" stroke="none" 
	d="
M1167.651733,63.856335 
	C1168.487549,64.148071 1169.226807,64.570091 1169.187622,64.663116 
	C1166.647583,70.674904 1171.002441,70.934387 1174.777832,70.988037 
	C1186.927124,71.160683 1199.081421,70.954903 1211.231323,71.100433 
	C1227.706665,71.297783 1244.243774,70.891800 1260.635254,72.217827 
	C1276.488159,73.500282 1291.301758,79.343819 1305.333984,86.863617 
	C1307.452271,87.998734 1309.339111,89.565636 1311.103149,91.739700 
	C1284.257568,91.659836 1258.076538,84.612579 1230.290161,84.881050 
	C1231.393188,86.938332 1231.882324,87.868057 1232.387329,88.788963 
	C1233.227295,90.320389 1234.077271,91.846268 1234.922852,93.374496 
	C1233.177979,94.222832 1231.497314,95.606209 1229.676880,95.824539 
	C1222.737061,96.656837 1215.761230,97.466995 1208.782471,97.645874 
	C1185.315430,98.247391 1161.842163,98.678001 1138.368774,98.879517 
	C1135.303711,98.905823 1132.223999,97.214500 1129.151001,96.318741 
	C1131.126709,93.804703 1132.963135,91.161728 1135.127197,88.821877 
	C1136.576660,87.254715 1138.539185,86.174431 1140.188354,84.777412 
	C1144.561279,81.073044 1144.411011,79.201233 1139.221436,77.092636 
	C1135.238403,75.474312 1131.036743,74.396950 1126.942017,73.049408 
	C1125.269531,72.499008 1123.622681,71.870560 1121.973145,70.438354 
	C1136.745239,65.694244 1151.863037,64.077629 1167.651733,63.856335 
z"/>
<path fill="#040404" opacity="1.000000" stroke="none" 
	d="
M928.592896,98.505203 
	C919.673950,98.999825 911.192444,99.219093 902.782532,100.112442 
	C898.468140,100.570724 895.005798,103.241104 893.639587,107.643936 
	C891.040405,116.020035 884.650757,119.024429 876.781982,118.943527 
	C858.459900,118.755150 840.136475,118.257828 821.825378,117.571396 
	C807.017578,117.016296 792.525391,116.676842 777.863770,121.102440 
	C769.718079,123.561211 760.221313,121.543755 750.606995,120.613663 
	C752.940063,118.795403 755.007446,116.164345 757.652283,115.299873 
	C768.980408,111.597260 780.278442,107.228401 791.951294,105.259903 
	C831.159790,98.647812 870.491333,92.735237 909.841187,87.003899 
	C932.066650,83.766747 954.413452,81.352104 976.723389,78.717346 
	C979.994446,78.331047 983.399536,78.498650 986.680542,78.907974 
	C992.258972,79.603897 993.877869,83.046288 990.668518,87.623352 
	C986.035522,94.230652 979.419800,98.560249 971.471924,98.819221 
	C957.352966,99.279282 943.199097,98.670609 928.592896,98.505203 
z"/>
</svg>