<svg version="1.1" id="Layer_1" xmlns="http://www.w3.org/2000/svg" xmlns:xlink="http://www.w3.org/1999/xlink" x="0px" y="0px"
	 width="100%" viewBox="0 0 1276 444" enable-background="new 0 0 1276 444" xml:space="preserve">

<path fill="#FF0101" opacity="1.000000" stroke="none" 
	d="
M292.999878,394.333496 
	C236.340973,394.331970 180.177155,393.893036 124.025467,394.527222 
	C98.764893,394.812469 78.193848,376.606323 73.574669,355.743347 
	C72.611649,351.393768 72.137634,346.845154 72.133102,342.387543 
	C72.049171,259.899078 72.031235,177.410461 72.093185,94.921959 
	C72.112915,68.645935 89.311111,48.008842 114.714180,43.466782 
	C116.828201,43.088802 119.019714,43.017323 121.175278,43.016861 
	C220.828110,42.995579 320.480957,42.988213 420.133789,43.004589 
	C445.662933,43.008785 468.852112,65.959885 468.971771,91.523636 
	C469.106628,120.352348 469.008575,149.182144 469.011780,178.011475 
	C469.011993,179.817841 469.011810,181.624222 469.011810,183.998962 
	C471.385773,183.998962 473.488586,183.998962 475.591370,183.998962 
	C702.393250,183.998993 929.195190,184.110992 1155.996826,183.854630 
	C1183.742676,183.823273 1207.696899,207.761642 1207.206543,234.725266 
	C1206.536865,271.541321 1207.078491,308.378723 1207.022339,345.206848 
	C1206.982056,371.520905 1185.867065,393.301178 1159.634644,394.208893 
	C1156.471436,394.318390 1153.303711,394.328583 1150.138062,394.328644 
	C916.503845,394.333862 682.869568,394.333405 449.235352,394.333405 
	C397.323517,394.333405 345.411713,394.333466 292.999878,394.333496 
M276.659149,206.499878 
	C276.659149,219.734879 276.659149,232.969879 276.659149,246.181183 
	C312.873444,246.181183 348.285706,246.181183 383.575317,246.181183 
	C383.575317,205.275864 383.575317,164.711685 383.575317,124.282272 
	C347.775543,124.282272 312.339111,124.282272 276.659119,124.282272 
	C276.659119,151.543259 276.659119,178.521545 276.659149,206.499878 
M245.498962,246.523468 
	C251.626602,246.523468 257.754242,246.523468 263.986877,246.523468 
	C263.986877,205.434906 263.986877,164.883423 263.986877,124.330269 
	C228.322891,124.330269 192.946228,124.330269 157.473862,124.330269 
	C157.473862,165.078186 157.473862,205.493332 157.473862,246.523300 
	C186.624725,246.523300 215.561966,246.523300 245.498962,246.523468 
M361.499756,319.538086 
	C368.917633,319.538086 376.335510,319.538086 383.598450,319.538086 
	C383.598450,298.837036 383.598450,278.920044 383.598450,259.205505 
	C308.015625,259.205505 232.781357,259.205505 157.455307,259.205505 
	C157.455307,279.362457 157.455307,299.134216 157.455307,319.537933 
	C225.276321,319.537933 292.888031,319.537933 361.499756,319.538086 
M371.490936,88.017242 
	C362.605835,78.966064 351.773865,74.938721 339.146210,74.961777 
	C292.839996,75.046295 246.533554,74.982368 200.227188,75.001289 
	C180.719299,75.009262 163.710037,88.044434 158.598648,106.877075 
	C158.193787,108.368851 158.114548,109.949013 157.856949,111.668449 
	C233.227661,111.668449 307.982727,111.668449 383.086884,111.668449 
	C381.690979,102.649994 378.038849,95.028030 371.490936,88.017242 
M743.842285,262.657867 
	C741.806763,260.236725 739.880188,257.710815 737.692322,255.436310 
	C736.505615,254.202652 734.893677,252.566177 733.439819,252.531540 
	C722.997314,252.282730 712.546082,252.398422 701.815186,252.398422 
	C701.815186,275.116455 701.815186,297.348633 701.815186,319.710083 
	C711.186401,319.710083 720.403992,319.710083 730.207031,319.710083 
	C730.207031,304.799011 730.207031,290.176208 730.207031,274.739563 
	C742.388794,289.318390 753.891479,303.135864 765.485596,316.876068 
	C766.574951,318.167084 768.220886,319.830658 769.643005,319.864502 
	C780.239319,320.116913 790.844421,320.001556 801.515503,320.001556 
	C801.515503,297.248596 801.515503,275.042694 801.515503,252.812347 
	C791.985718,252.812347 782.777466,252.812347 773.158325,252.812347 
	C773.158325,267.619080 773.158325,282.007782 773.158325,297.583252 
	C763.022156,285.524109 753.647888,274.371490 743.842285,262.657867 
M903.854492,266.506836 
	C903.854492,284.247375 903.854492,301.987946 903.854492,319.763489 
	C913.542786,319.763489 922.621582,319.763489 932.190796,319.763489 
	C932.190796,313.295685 932.190796,307.053314 932.190796,300.663177 
	C938.998535,300.663177 945.324890,300.436432 951.628784,300.717041 
	C960.780212,301.124451 963.795837,303.760284 966.339783,312.667664 
	C966.840210,314.419800 967.225159,316.264496 968.090149,317.830780 
	C968.618042,318.786469 969.949341,319.885803 970.940186,319.905762 
	C979.148071,320.071075 987.360779,319.999390 995.859863,319.999390 
	C992.772949,311.097137 994.705505,300.410522 983.354736,296.577820 
	C984.021179,295.843414 984.272217,295.355804 984.667297,295.162476 
	C993.894348,290.645996 996.851685,282.831085 995.794128,273.235596 
	C994.753784,263.796082 988.633789,258.613434 980.005188,255.988693 
	C977.155212,255.121750 974.211731,254.100189 971.286316,254.016937 
	C949.176514,253.387833 927.060730,252.972763 904.946167,252.518555 
	C904.684082,252.513153 904.414490,252.872742 903.854492,253.271011 
	C903.854492,257.212250 903.854492,261.361786 903.854492,266.506836 
M669.836670,255.529526 
	C652.604187,249.576096 635.199280,249.262863 617.915710,254.852325 
	C603.192017,259.613922 595.614563,270.701019 595.564880,286.096619 
	C595.514648,301.668182 603.280884,313.176819 618.013855,317.818970 
	C634.444519,322.996094 651.177429,322.973999 667.619446,317.813141 
	C681.179443,313.556885 689.270020,302.853577 689.988281,289.591125 
	C690.882385,273.082886 684.714661,262.396881 669.836670,255.529526 
M1042.684692,321.071320 
	C1053.861206,321.704620 1064.976685,321.573975 1075.717163,317.863464 
	C1090.158203,312.874512 1097.979736,301.844849 1098.055664,286.544556 
	C1098.132568,271.051666 1090.696167,259.826172 1076.182495,254.985214 
	C1059.287354,249.349976 1042.107300,249.378555 1025.231934,255.065063 
	C1013.279724,259.092621 1005.682251,267.503448 1004.026672,280.321198 
	C1002.265808,293.954193 1005.455811,305.860291 1017.646973,313.845306 
	C1024.910645,318.602844 1033.198975,320.331818 1042.684692,321.071320 
M573.530457,257.891235 
	C555.171509,248.905899 536.159546,249.090164 517.155579,254.847717 
	C502.112488,259.405273 494.468201,270.823059 494.548950,286.386902 
	C494.629913,301.992462 502.497833,313.070618 517.284119,317.951233 
	C530.045349,322.163361 543.228760,322.484344 556.275085,320.228546 
	C562.840393,319.093353 569.406311,316.564484 575.321960,313.436554 
	C582.116516,309.843811 586.072083,303.470825 587.956360,295.445862 
	C578.430725,295.445862 569.456726,295.404480 560.484253,295.503235 
	C559.470947,295.514404 558.110718,296.036133 557.513794,296.795013 
	C552.538818,303.119720 545.697021,303.678314 538.515137,303.098999 
	C527.094788,302.177795 520.263794,291.866455 523.726013,280.916260 
	C527.565979,268.771332 546.700195,264.872101 556.143860,274.267700 
	C557.240173,275.358429 558.640625,276.887024 559.932068,276.919006 
	C569.169373,277.147827 578.414978,277.041229 587.977051,277.041229 
	C585.789185,268.474854 581.140869,262.494720 573.530457,257.891235 
M838.525391,297.499695 
	C838.525391,304.930206 838.525391,312.360718 838.525391,319.778442 
	C848.282104,319.778442 857.386108,319.778442 867.017456,319.778442 
	C867.017456,302.847961 867.017456,286.137146 867.017456,269.041321 
	C875.962646,269.041321 884.386292,269.041321 893.005859,269.041321 
	C893.005859,263.398224 893.005859,258.152832 893.005859,252.792694 
	C865.929138,252.792694 839.084656,252.792694 812.374634,252.792694 
	C812.374634,258.451691 812.374634,263.701874 812.374634,269.279724 
	C821.162842,269.279724 829.612793,269.279724 838.525696,269.279724 
	C838.525696,278.578644 838.525696,287.539185 838.525391,297.499695 
M1137.926270,263.529968 
	C1137.926270,259.938202 1137.926270,256.346436 1137.926270,252.671692 
	C1128.194824,252.671692 1119.122437,252.671692 1109.791382,252.671692 
	C1109.791382,275.176056 1109.791382,297.402191 1109.791382,319.688507 
	C1136.037842,319.688507 1162.078735,319.688507 1187.963623,319.688507 
	C1187.963623,314.112000 1187.963623,308.858246 1187.963623,303.214569 
	C1171.239624,303.214569 1154.831787,303.214569 1137.926270,303.214569 
	C1137.926270,290.054657 1137.926270,277.287201 1137.926270,263.529968 
M208.461884,362.199097 
	C209.727661,362.087830 210.993454,361.976562 212.164780,361.873627 
	C212.164780,351.882507 212.164780,342.291779 212.164780,332.434418 
	C202.058365,332.434418 192.186218,332.434418 182.043091,332.434418 
	C182.043091,342.320190 182.043091,352.016327 182.043091,362.199310 
	C190.630371,362.199310 199.049591,362.199310 208.461884,362.199097 
M359.173889,353.475128 
	C359.173889,346.538849 359.173889,339.602570 359.173889,332.478149 
	C348.861145,332.478149 339.010162,332.478149 329.169861,332.478149 
	C329.169861,342.507996 329.169861,352.219482 329.169861,361.810059 
	C339.337097,361.810059 349.186829,361.810059 359.173920,361.810059 
	C359.173920,359.102661 359.173920,356.784058 359.173889,353.475128 
M136.478882,154.460770 
	C133.387955,154.460770 130.297043,154.460770 127.325455,154.460770 
	C127.325455,169.167587 127.325455,183.198624 127.325455,197.188782 
	C133.389709,197.188782 139.109253,197.188782 144.706909,197.188782 
	C144.706909,182.811203 144.706909,168.786972 144.706909,154.460922 
	C142.044357,154.460922 139.737045,154.460922 136.478882,154.460770 
M396.062866,157.837708 
	C396.062866,170.915649 396.062866,183.993576 396.062866,197.526093 
	C401.011108,197.526093 405.504517,197.855789 409.901154,197.348068 
	C411.449524,197.169250 413.962616,194.968826 413.994446,193.642456 
	C414.304230,180.734344 414.180786,167.815842 414.180786,154.470596 
	C408.555847,154.470596 403.427856,154.367981 398.312866,154.579666 
	C397.532776,154.611938 396.812866,156.099014 396.062866,157.837708 
z"/>
<path fill="#020202" opacity="1.000000" stroke="none" 
	d="
M1011.687256,113.000145 
	C1011.687256,124.798988 1011.687256,136.097824 1011.687256,148.002502 
	C1000.947205,148.002502 990.480286,147.428970 980.110046,148.184158 
	C971.830444,148.787140 966.489441,146.148819 961.358765,139.533920 
	C949.427063,124.150566 936.558838,109.493362 924.058899,94.551331 
	C923.040100,93.333450 921.935364,92.187546 920.276978,90.350845 
	C920.276978,109.945747 920.276978,128.664764 920.276978,147.692139 
	C908.186890,147.692139 896.441895,147.692139 884.366211,147.692139 
	C884.366211,119.455864 884.366211,91.067894 884.366211,62.019905 
	C887.968140,62.019905 891.726074,62.019901 895.484009,62.019905 
	C904.479004,62.019913 913.479309,62.198357 922.466187,61.928314 
	C925.855225,61.826481 927.939148,63.046230 930.003052,65.530434 
	C943.728638,82.050621 957.572388,98.472565 971.384155,114.921036 
	C972.400146,116.131073 973.466858,117.298531 975.323608,119.411705 
	C975.323608,99.716034 975.323608,81.199615 975.323608,62.353943 
	C987.567322,62.353943 999.294495,62.353943 1011.687256,62.353943 
	C1011.687256,78.979965 1011.687256,95.740051 1011.687256,113.000145 
z"/>
<path fill="#010101" opacity="1.000000" stroke="none" 
	d="
M622.004395,62.021343 
	C643.640259,62.340023 664.793152,62.276890 685.904236,63.185844 
	C693.227905,63.501179 700.664429,65.595047 707.664612,67.997726 
	C718.296143,71.646790 723.856934,79.598984 724.307861,91.026787 
	C724.756287,102.390717 720.758362,111.150070 710.187317,116.305504 
	C709.496399,116.642471 708.857971,117.087105 708.149963,117.508514 
	C719.397461,124.881271 719.397461,124.881271 723.914551,148.000122 
	C713.388306,148.000122 702.918457,148.106598 692.456787,147.863251 
	C691.171692,147.833374 689.352844,146.180862 688.781860,144.850784 
	C687.352112,141.520264 686.515198,137.937210 685.407288,134.466064 
	C683.432922,128.280609 679.089600,124.362511 672.769470,124.023453 
	C663.164490,123.508171 653.511475,123.888626 643.377625,123.888626 
	C643.377625,131.308746 643.377625,139.367172 643.377625,147.709686 
	C631.146301,147.709686 619.405396,147.709686 607.350647,147.709686 
	C607.350647,119.426064 607.350647,91.044487 607.350647,62.021343 
	C611.991333,62.021343 616.748169,62.021343 622.004395,62.021343 
M688.204834,93.345955 
	C688.659790,88.365898 685.768005,85.491219 681.429871,85.090027 
	C668.790588,83.921135 656.099060,83.316559 643.301392,82.482460 
	C643.301392,89.788971 643.301392,95.705521 643.301392,101.976791 
	C650.307556,101.976791 657.102173,102.226913 663.869324,101.902664 
	C669.979553,101.609879 676.166077,101.157539 682.099854,99.810303 
	C684.415588,99.284531 686.132751,96.122589 688.204834,93.345955 
z"/>
<path fill="#020202" opacity="1.000000" stroke="none" 
	d="
M1043.041382,66.948456 
	C1056.527832,60.237686 1070.637939,59.919323 1084.849487,60.512886 
	C1094.552368,60.918148 1104.061890,62.385338 1112.776855,67.077591 
	C1121.601685,71.829079 1126.968994,79.134895 1129.435059,89.472282 
	C1116.907715,89.472282 1104.962769,89.553505 1093.022461,89.361206 
	C1091.653564,89.339165 1090.157349,87.960861 1088.978882,86.918755 
	C1082.393555,81.095703 1066.367920,82.638657 1063.877075,91.408897 
	C1066.754761,91.955750 1069.552368,92.656479 1072.393188,92.997513 
	C1083.787231,94.365425 1095.196777,95.604401 1106.594482,96.943382 
	C1107.902710,97.097069 1109.185669,97.534920 1110.457642,97.916077 
	C1118.952637,100.461357 1127.419312,103.576141 1129.370972,113.482353 
	C1131.350342,123.529411 1126.459595,131.641174 1119.488892,138.327576 
	C1113.297607,144.266312 1105.378296,146.934525 1097.032715,148.310715 
	C1082.080078,150.776352 1067.142090,150.840775 1052.436768,146.926437 
	C1038.972900,143.342560 1029.560181,135.321854 1026.124390,120.770531 
	C1038.431885,120.770531 1050.411377,120.694489 1062.387085,120.874146 
	C1063.765015,120.894821 1065.263550,122.167816 1066.464966,123.154022 
	C1074.197266,129.501053 1087.599731,127.491669 1092.057617,118.157310 
	C1086.728149,117.420425 1081.761719,116.674255 1076.779419,116.057243 
	C1066.389282,114.770576 1055.905029,114.025894 1045.622192,112.161041 
	C1036.847778,110.569763 1028.607910,106.778206 1026.425293,97.012596 
	C1024.085449,86.542809 1029.286743,78.321800 1036.555786,71.336548 
	C1038.327637,69.633896 1040.633789,68.487457 1043.041382,66.948456 
z"/>
<path fill="#020202" opacity="1.000000" stroke="none" 
	d="
M782.072510,119.002640 
	C776.966003,127.720779 771.952087,136.495850 766.658020,145.098557 
	C765.817505,146.464417 763.734619,147.839539 762.194519,147.876022 
	C751.884888,148.120270 741.566650,148.002960 730.517029,148.002960 
	C731.404053,146.386871 731.998474,145.137650 732.737854,143.981155 
	C749.474304,117.805138 766.267395,91.665108 782.912170,65.430977 
	C784.544861,62.857632 786.248413,61.906334 789.271606,61.980843 
	C797.922607,62.194057 806.585388,61.935593 815.235657,62.162018 
	C816.874451,62.204918 819.160156,63.181511 819.996033,64.472633 
	C837.602173,91.668060 855.044250,118.969727 872.502686,146.260681 
	C872.736938,146.626877 872.767944,147.123108 873.021484,148.000504 
	C861.649780,148.000504 850.559326,148.087372 839.474731,147.873138 
	C838.299133,147.850403 836.782043,146.283432 836.060852,145.057724 
	C831.177979,136.760117 826.466736,128.361526 821.400269,119.635002 
	C821.100586,119.274422 820.860718,119.068222 820.806641,118.721878 
	C814.416382,107.279900 808.080261,96.184265 801.342651,84.385567 
	C794.691650,96.281891 788.325195,107.669212 781.995483,119.060562 
	C782.032227,119.064590 782.072510,119.002647 782.072510,119.002640 
z"/>
<path fill="#010101" opacity="1.000000" stroke="none" 
	d="
M533.054993,148.001114 
	C529.930359,148.001114 527.297852,148.001114 524.283264,148.001114 
	C524.283264,126.375618 524.283264,105.112762 524.283264,83.364670 
	C513.005066,83.364670 502.095947,83.364670 490.925568,83.364670 
	C490.925568,76.123833 490.925568,69.362656 490.925568,62.309921 
	C525.053467,62.309921 559.286438,62.309921 593.759766,62.309921 
	C593.759766,69.107277 593.759766,75.860779 593.759766,83.033676 
	C582.856506,83.033676 571.948364,83.033676 560.473267,83.033676 
	C560.473267,104.805695 560.473267,126.175377 560.473267,148.001114 
	C551.121765,148.001114 542.334473,148.001114 533.054993,148.001114 
z"/>
<path fill="#FFFEFE" opacity="1.000000" stroke="none" 
	d="
M820.860718,119.068222 
	C820.860718,119.068222 821.100586,119.274422 821.103455,119.432571 
	C814.650696,130.618164 808.195068,141.645630 801.367432,153.308609 
	C794.743225,141.873672 788.320190,130.785950 781.984863,119.350441 
	C782.072510,119.002647 782.032227,119.064590 782.465942,119.027504 
	C795.553406,119.016350 808.207031,119.042282 820.860718,119.068222 
z"/>
<path fill="#FFFEFE" opacity="1.000000" stroke="none" 
	d="
M276.659119,205.999863 
	C276.659119,178.521545 276.659119,151.543259 276.659119,124.282272 
	C312.339111,124.282272 347.775543,124.282272 383.575317,124.282272 
	C383.575317,164.711685 383.575317,205.275864 383.575317,246.181183 
	C348.285706,246.181183 312.873444,246.181183 276.659149,246.181183 
	C276.659149,232.969879 276.659149,219.734879 276.659119,205.999863 
z"/>
<path fill="#FFFDFD" opacity="1.000000" stroke="none" 
	d="
M244.999084,246.523376 
	C215.561966,246.523300 186.624725,246.523300 157.473862,246.523300 
	C157.473862,205.493332 157.473862,165.078186 157.473862,124.330269 
	C192.946228,124.330269 228.322891,124.330269 263.986877,124.330269 
	C263.986877,164.883423 263.986877,205.434906 263.986877,246.523468 
	C257.754242,246.523468 251.626602,246.523468 244.999084,246.523376 
z"/>
<path fill="#FFFAFA" opacity="1.000000" stroke="none" 
	d="
M360.999756,319.538025 
	C292.888031,319.537933 225.276321,319.537933 157.455307,319.537933 
	C157.455307,299.134216 157.455307,279.362457 157.455307,259.205505 
	C232.781357,259.205505 308.015625,259.205505 383.598450,259.205505 
	C383.598450,278.920044 383.598450,298.837036 383.598450,319.538086 
	C376.335510,319.538086 368.917633,319.538086 360.999756,319.538025 
M222.610718,307.249481 
	C223.418030,307.441254 224.225159,307.799744 225.032700,307.800690 
	C255.198349,307.836884 285.364075,307.872253 315.529602,307.808594 
	C319.471313,307.800293 322.353180,305.842285 322.614838,301.604858 
	C322.844025,297.893524 319.805634,295.476227 315.085297,295.470276 
	C285.419434,295.432953 255.752777,295.366699 226.088867,295.611572 
	C223.744812,295.630920 220.563141,297.376770 219.292419,299.316864 
	C217.517838,302.026245 218.784073,305.104370 222.610718,307.249481 
M234.529541,271.009155 
	C231.036713,271.017365 227.518066,270.764893 224.058395,271.107605 
	C220.651230,271.445160 218.173981,273.841370 218.950165,277.149475 
	C219.470276,279.366211 221.985428,281.244720 223.908173,282.932465 
	C224.586304,283.527740 226.155853,283.145020 227.318436,283.145294 
	C256.094330,283.152130 284.870209,283.152679 313.646118,283.143188 
	C314.974121,283.142731 316.766998,283.563416 317.538422,282.879730 
	C319.461212,281.175690 322.251678,278.907532 322.192963,276.940491 
	C322.133087,274.932678 319.268250,272.797882 317.268799,271.161835 
	C316.464478,270.503693 314.695221,271.011292 313.365143,271.011139 
	C287.416931,271.008453 261.468719,271.009155 234.529541,271.009155 
M363.838165,274.508301 
	C355.431122,269.663147 348.896393,269.789917 342.121429,274.990265 
	C335.933716,279.739838 333.831329,286.101837 335.471497,293.550568 
	C337.202606,301.411957 343.941559,306.873871 352.223602,307.654388 
	C359.350037,308.326019 367.074158,303.483307 370.100494,296.446320 
	C373.352844,288.883789 371.339691,281.301971 363.838165,274.508301 
M199.666641,303.254028 
	C206.724106,296.251434 208.192261,287.508789 203.601318,279.823608 
	C199.516907,272.986389 190.142410,269.319763 182.836075,271.843079 
	C175.694977,274.309357 170.896896,278.994415 169.922928,286.759308 
	C168.940109,294.594635 171.789444,300.891937 178.589890,304.943756 
	C185.569031,309.102112 192.525406,308.452301 199.666641,303.254028 
z"/>
<path fill="#FFFCFC" opacity="1.000000" stroke="none" 
	d="
M371.731934,88.277611 
	C378.038849,95.028030 381.690979,102.649994 383.086884,111.668449 
	C307.982727,111.668449 233.227661,111.668449 157.856949,111.668449 
	C158.114548,109.949013 158.193787,108.368851 158.598648,106.877075 
	C163.710037,88.044434 180.719299,75.009262 200.227188,75.001289 
	C246.533554,74.982368 292.839996,75.046295 339.146210,74.961777 
	C351.773865,74.938721 362.605835,78.966064 371.731934,88.277611 
M263.600677,99.527443 
	C270.734222,99.509766 277.870728,99.606880 285.000092,99.425339 
	C288.495941,99.336327 291.191772,97.583443 291.406616,93.797432 
	C291.612366,90.172264 289.571045,87.402489 285.974152,87.298531 
	C275.696930,87.001511 265.388092,86.872978 255.135147,87.450111 
	C253.111465,87.564034 250.230637,90.848190 249.619171,93.164940 
	C248.786972,96.317993 251.263260,98.782578 254.702881,99.225899 
	C257.318024,99.562965 259.992004,99.443573 263.600677,99.527443 
z"/>
<path fill="#FFFBFB" opacity="1.000000" stroke="none" 
	d="
M744.057983,262.938354 
	C753.647888,274.371490 763.022156,285.524109 773.158325,297.583252 
	C773.158325,282.007782 773.158325,267.619080 773.158325,252.812347 
	C782.777466,252.812347 791.985718,252.812347 801.515503,252.812347 
	C801.515503,275.042694 801.515503,297.248596 801.515503,320.001556 
	C790.844421,320.001556 780.239319,320.116913 769.643005,319.864502 
	C768.220886,319.830658 766.574951,318.167084 765.485596,316.876068 
	C753.891479,303.135864 742.388794,289.318390 730.207031,274.739563 
	C730.207031,290.176208 730.207031,304.799011 730.207031,319.710083 
	C720.403992,319.710083 711.186401,319.710083 701.815186,319.710083 
	C701.815186,297.348633 701.815186,275.116455 701.815186,252.398422 
	C712.546082,252.398422 722.997314,252.282730 733.439819,252.531540 
	C734.893677,252.566177 736.505615,254.202652 737.692322,255.436310 
	C739.880188,257.710815 741.806763,260.236725 744.057983,262.938354 
z"/>
<path fill="#FFFCFC" opacity="1.000000" stroke="none" 
	d="
M903.854492,266.009064 
	C903.854492,261.361786 903.854492,257.212250 903.854492,253.271011 
	C904.414490,252.872742 904.684082,252.513153 904.946167,252.518555 
	C927.060730,252.972763 949.176514,253.387833 971.286316,254.016937 
	C974.211731,254.100189 977.155212,255.121750 980.005188,255.988693 
	C988.633789,258.613434 994.753784,263.796082 995.794128,273.235596 
	C996.851685,282.831085 993.894348,290.645996 984.667297,295.162476 
	C984.272217,295.355804 984.021179,295.843414 983.354736,296.577820 
	C994.705505,300.410522 992.772949,311.097137 995.859863,319.999390 
	C987.360779,319.999390 979.148071,320.071075 970.940186,319.905762 
	C969.949341,319.885803 968.618042,318.786469 968.090149,317.830780 
	C967.225159,316.264496 966.840210,314.419800 966.339783,312.667664 
	C963.795837,303.760284 960.780212,301.124451 951.628784,300.717041 
	C945.324890,300.436432 938.998535,300.663177 932.190796,300.663177 
	C932.190796,307.053314 932.190796,313.295685 932.190796,319.763489 
	C922.621582,319.763489 913.542786,319.763489 903.854492,319.763489 
	C903.854492,301.987946 903.854492,284.247375 903.854492,266.009064 
M966.015564,272.394104 
	C955.158997,266.880768 943.624451,269.975220 932.312805,269.002441 
	C932.312805,274.333984 932.312805,278.922516 932.312805,284.310913 
	C941.865479,283.854187 951.162903,283.759979 960.380005,282.851349 
	C967.019836,282.196747 968.657776,278.967316 966.015564,272.394104 
z"/>
<path fill="#FFFDFD" opacity="1.000000" stroke="none" 
	d="
M670.180969,255.699860 
	C684.714661,262.396881 690.882385,273.082886 689.988281,289.591125 
	C689.270020,302.853577 681.179443,313.556885 667.619446,317.813141 
	C651.177429,322.973999 634.444519,322.996094 618.013855,317.818970 
	C603.280884,313.176819 595.514648,301.668182 595.564880,286.096619 
	C595.614563,270.701019 603.192017,259.613922 617.915710,254.852325 
	C635.199280,249.262863 652.604187,249.576096 670.180969,255.699860 
M661.596924,284.004089 
	C658.959412,272.160553 650.278809,267.043701 637.416992,269.751068 
	C627.232788,271.894806 621.649109,281.267517 624.591248,291.280121 
	C627.317810,300.558990 635.522034,304.734985 647.565063,302.973816 
	C656.543945,301.660767 661.560547,295.214233 661.596924,284.004089 
z"/>
<path fill="#FFFDFD" opacity="1.000000" stroke="none" 
	d="
M1042.211426,321.044769 
	C1033.198975,320.331818 1024.910645,318.602844 1017.646973,313.845306 
	C1005.455811,305.860291 1002.265808,293.954193 1004.026672,280.321198 
	C1005.682251,267.503448 1013.279724,259.092621 1025.231934,255.065063 
	C1042.107300,249.378555 1059.287354,249.349976 1076.182495,254.985214 
	C1090.696167,259.826172 1098.132568,271.051666 1098.055664,286.544556 
	C1097.979736,301.844849 1090.158203,312.874512 1075.717163,317.863464 
	C1064.976685,321.573975 1053.861206,321.704620 1042.211426,321.044769 
M1033.254639,279.125000 
	C1033.000977,279.918488 1032.702148,280.700684 1032.500488,281.507172 
	C1029.954468,291.685822 1035.447510,300.924774 1045.184326,302.862030 
	C1058.001953,305.412262 1067.505005,300.056763 1069.450928,289.186768 
	C1070.894043,281.125031 1066.705811,273.311432 1059.379028,270.597473 
	C1050.673828,267.372955 1037.460815,269.125610 1033.254639,279.125000 
z"/>
<path fill="#FFFBFB" opacity="1.000000" stroke="none" 
	d="
M573.862427,258.047607 
	C581.140869,262.494720 585.789185,268.474854 587.977051,277.041229 
	C578.414978,277.041229 569.169373,277.147827 559.932068,276.919006 
	C558.640625,276.887024 557.240173,275.358429 556.143860,274.267700 
	C546.700195,264.872101 527.565979,268.771332 523.726013,280.916260 
	C520.263794,291.866455 527.094788,302.177795 538.515137,303.098999 
	C545.697021,303.678314 552.538818,303.119720 557.513794,296.795013 
	C558.110718,296.036133 559.470947,295.514404 560.484253,295.503235 
	C569.456726,295.404480 578.430725,295.445862 587.956360,295.445862 
	C586.072083,303.470825 582.116516,309.843811 575.321960,313.436554 
	C569.406311,316.564484 562.840393,319.093353 556.275085,320.228546 
	C543.228760,322.484344 530.045349,322.163361 517.284119,317.951233 
	C502.497833,313.070618 494.629913,301.992462 494.548950,286.386902 
	C494.468201,270.823059 502.112488,259.405273 517.155579,254.847717 
	C536.159546,249.090164 555.171509,248.905899 573.862427,258.047607 
z"/>
<path fill="#FFFBFB" opacity="1.000000" stroke="none" 
	d="
M838.525513,296.999695 
	C838.525696,287.539185 838.525696,278.578644 838.525696,269.279724 
	C829.612793,269.279724 821.162842,269.279724 812.374634,269.279724 
	C812.374634,263.701874 812.374634,258.451691 812.374634,252.792694 
	C839.084656,252.792694 865.929138,252.792694 893.005859,252.792694 
	C893.005859,258.152832 893.005859,263.398224 893.005859,269.041321 
	C884.386292,269.041321 875.962646,269.041321 867.017456,269.041321 
	C867.017456,286.137146 867.017456,302.847961 867.017456,319.778442 
	C857.386108,319.778442 848.282104,319.778442 838.525391,319.778442 
	C838.525391,312.360718 838.525391,304.930206 838.525513,296.999695 
z"/>
<path fill="#FFFCFC" opacity="1.000000" stroke="none" 
	d="
M1137.926270,264.024872 
	C1137.926270,277.287201 1137.926270,290.054657 1137.926270,303.214569 
	C1154.831787,303.214569 1171.239624,303.214569 1187.963623,303.214569 
	C1187.963623,308.858246 1187.963623,314.112000 1187.963623,319.688507 
	C1162.078735,319.688507 1136.037842,319.688507 1109.791382,319.688507 
	C1109.791382,297.402191 1109.791382,275.176056 1109.791382,252.671692 
	C1119.122437,252.671692 1128.194824,252.671692 1137.926270,252.671692 
	C1137.926270,256.346436 1137.926270,259.938202 1137.926270,264.024872 
z"/>
<path fill="#FFFDFD" opacity="1.000000" stroke="none" 
	d="
M207.965332,362.199219 
	C199.049591,362.199310 190.630371,362.199310 182.043091,362.199310 
	C182.043091,352.016327 182.043091,342.320190 182.043091,332.434418 
	C192.186218,332.434418 202.058365,332.434418 212.164780,332.434418 
	C212.164780,342.291779 212.164780,351.882507 212.164780,361.873627 
	C210.993454,361.976562 209.727661,362.087830 207.965332,362.199219 
z"/>
<path fill="#FFFDFD" opacity="1.000000" stroke="none" 
	d="
M359.173889,353.970306 
	C359.173920,356.784058 359.173920,359.102661 359.173920,361.810059 
	C349.186829,361.810059 339.337097,361.810059 329.169861,361.810059 
	C329.169861,352.219482 329.169861,342.507996 329.169861,332.478149 
	C339.010162,332.478149 348.861145,332.478149 359.173889,332.478149 
	C359.173889,339.602570 359.173889,346.538849 359.173889,353.970306 
z"/>
<path fill="#FFF9F9" opacity="1.000000" stroke="none" 
	d="
M136.954315,154.460846 
	C139.737045,154.460922 142.044357,154.460922 144.706909,154.460922 
	C144.706909,168.786972 144.706909,182.811203 144.706909,197.188782 
	C139.109253,197.188782 133.389709,197.188782 127.325455,197.188782 
	C127.325455,183.198624 127.325455,169.167587 127.325455,154.460770 
	C130.297043,154.460770 133.387955,154.460770 136.954315,154.460846 
z"/>
<path fill="#FFF8F8" opacity="1.000000" stroke="none" 
	d="
M396.063995,157.375458 
	C396.812866,156.099014 397.532776,154.611938 398.312866,154.579666 
	C403.427856,154.367981 408.555847,154.470596 414.180786,154.470596 
	C414.180786,167.815842 414.304230,180.734344 413.994446,193.642456 
	C413.962616,194.968826 411.449524,197.169250 409.901154,197.348068 
	C405.504517,197.855789 401.011108,197.526093 396.062866,197.526093 
	C396.062866,183.993576 396.062866,170.915649 396.063995,157.375458 
z"/>

<path fill="#FF0E0E" opacity="1.000000" stroke="none" 
	d="
M222.222229,307.090210 
	C218.784073,305.104370 217.517838,302.026245 219.292419,299.316864 
	C220.563141,297.376770 223.744812,295.630920 226.088867,295.611572 
	C255.752777,295.366699 285.419434,295.432953 315.085297,295.470276 
	C319.805634,295.476227 322.844025,297.893524 322.614838,301.604858 
	C322.353180,305.842285 319.471313,307.800293 315.529602,307.808594 
	C285.364075,307.872253 255.198349,307.836884 225.032700,307.800690 
	C224.225159,307.799744 223.418030,307.441254 222.222229,307.090210 
z"/>
<path fill="#FF0101" opacity="1.000000" stroke="none" 
	d="
M235.025024,271.009155 
	C261.468719,271.009155 287.416931,271.008453 313.365143,271.011139 
	C314.695221,271.011292 316.464478,270.503693 317.268799,271.161835 
	C319.268250,272.797882 322.133087,274.932678 322.192963,276.940491 
	C322.251678,278.907532 319.461212,281.175690 317.538422,282.879730 
	C316.766998,283.563416 314.974121,283.142731 313.646118,283.143188 
	C284.870209,283.152679 256.094330,283.152130 227.318436,283.145294 
	C226.155853,283.145020 224.586304,283.527740 223.908173,282.932465 
	C221.985428,281.244720 219.470276,279.366211 218.950165,277.149475 
	C218.173981,273.841370 220.651230,271.445160 224.058395,271.107605 
	C227.518066,270.764893 231.036713,271.017365 235.025024,271.009155 
z"/>
<path fill="#FF0606" opacity="1.000000" stroke="none" 
	d="
M364.120178,274.747101 
	C371.339691,281.301971 373.352844,288.883789 370.100494,296.446320 
	C367.074158,303.483307 359.350037,308.326019 352.223602,307.654388 
	C343.941559,306.873871 337.202606,301.411957 335.471497,293.550568 
	C333.831329,286.101837 335.933716,279.739838 342.121429,274.990265 
	C348.896393,269.789917 355.431122,269.663147 364.120178,274.747101 
M352.025818,283.508392 
	C346.608521,286.210480 345.276245,291.129211 349.553925,293.702759 
	C351.307434,294.757721 354.496094,294.886139 356.285828,293.973267 
	C357.794434,293.203827 358.989502,290.308380 358.964813,288.371277 
	C358.919067,284.785492 356.064392,283.505463 352.025818,283.508392 
z"/>
<path fill="#FF0505" opacity="1.000000" stroke="none" 
	d="
M199.391129,303.497589 
	C192.525406,308.452301 185.569031,309.102112 178.589890,304.943756 
	C171.789444,300.891937 168.940109,294.594635 169.922928,286.759308 
	C170.896896,278.994415 175.694977,274.309357 182.836075,271.843079 
	C190.142410,269.319763 199.516907,272.986389 203.601318,279.823608 
	C208.192261,287.508789 206.724106,296.251434 199.391129,303.497589 
M189.179199,295.089203 
	C194.554138,292.310028 195.856842,287.544312 191.647278,284.893372 
	C189.910233,283.799469 186.687775,283.582214 184.910385,284.483551 
	C183.371368,285.264008 182.126190,288.203796 182.161514,290.163727 
	C182.225342,293.705383 185.080368,295.039764 189.179199,295.089203 
z"/>
<path fill="#FF0707" opacity="1.000000" stroke="none" 
	d="
M263.120239,99.527359 
	C259.992004,99.443573 257.318024,99.562965 254.702881,99.225899 
	C251.263260,98.782578 248.786972,96.317993 249.619171,93.164940 
	C250.230637,90.848190 253.111465,87.564034 255.135147,87.450111 
	C265.388092,86.872978 275.696930,87.001511 285.974152,87.298531 
	C289.571045,87.402489 291.612366,90.172264 291.406616,93.797432 
	C291.191772,97.583443 288.495941,99.336327 285.000092,99.425339 
	C277.870728,99.606880 270.734222,99.509766 263.120239,99.527359 
z"/>
<path fill="#FF0808" opacity="1.000000" stroke="none" 
	d="
M966.279541,272.671509 
	C968.657776,278.967316 967.019836,282.196747 960.380005,282.851349 
	C951.162903,283.759979 941.865479,283.854187 932.312805,284.310913 
	C932.312805,278.922516 932.312805,274.333984 932.312805,269.002441 
	C943.624451,269.975220 955.158997,266.880768 966.279541,272.671509 
z"/>
<path fill="#FF0404" opacity="1.000000" stroke="none" 
	d="
M661.646362,284.409668 
	C661.560547,295.214233 656.543945,301.660767 647.565063,302.973816 
	C635.522034,304.734985 627.317810,300.558990 624.591248,291.280121 
	C621.649109,281.267517 627.232788,271.894806 637.416992,269.751068 
	C650.278809,267.043701 658.959412,272.160553 661.646362,284.409668 
z"/>
<path fill="#FF0404" opacity="1.000000" stroke="none" 
	d="
M1033.455444,278.788574 
	C1037.460815,269.125610 1050.673828,267.372955 1059.379028,270.597473 
	C1066.705811,273.311432 1070.894043,281.125031 1069.450928,289.186768 
	C1067.505005,300.056763 1058.001953,305.412262 1045.184326,302.862030 
	C1035.447510,300.924774 1029.954468,291.685822 1032.500488,281.507172 
	C1032.702148,280.700684 1033.000977,279.918488 1033.455444,278.788574 
z"/>
<path fill="#FFF6F6" opacity="1.000000" stroke="none" 
	d="
M352.389404,283.413971 
	C356.064392,283.505463 358.919067,284.785492 358.964813,288.371277 
	C358.989502,290.308380 357.794434,293.203827 356.285828,293.973267 
	C354.496094,294.886139 351.307434,294.757721 349.553925,293.702759 
	C345.276245,291.129211 346.608521,286.210480 352.389404,283.413971 
z"/>
<path fill="#FFF6F6" opacity="1.000000" stroke="none" 
	d="
M188.785263,295.172333 
	C185.080368,295.039764 182.225342,293.705383 182.161514,290.163727 
	C182.126190,288.203796 183.371368,285.264008 184.910385,284.483551 
	C186.687775,283.582214 189.910233,283.799469 191.647278,284.893372 
	C195.856842,287.544312 194.554138,292.310028 188.785263,295.172333 
z"/>
</svg>