<svg version="1.1" id="Layer_1" xmlns="http://www.w3.org/2000/svg" xmlns:xlink="http://www.w3.org/1999/xlink" x="0px" y="0px"
	 width="100%" viewBox="0 0 1920 1080" enable-background="new 0 0 1920 1080" xml:space="preserve">

<path fill="#FF0101" opacity="1.000000" stroke="none" 
	d="
M481.000000,367.996277 
	C567.655151,367.996277 653.810303,367.994415 739.965454,367.997467 
	C767.205872,367.998444 789.950806,390.623352 789.995300,417.852448 
	C790.044556,448.003906 790.006592,478.155518 790.006592,508.997681 
	C792.249512,508.997681 794.336365,508.997681 796.423218,508.997711 
	C1023.226257,508.997742 1250.029419,509.119965 1476.832031,508.840546 
	C1504.684814,508.806244 1528.786621,532.792114 1528.228271,560.058960 
	C1527.474609,596.871948 1528.084595,633.711975 1528.020264,670.540344 
	C1527.974976,696.470886 1506.740479,718.292419 1480.804321,719.205750 
	C1477.807739,719.311218 1474.806763,719.330444 1471.807861,719.330505 
	C1237.839111,719.335938 1003.870422,719.335693 769.901672,719.335571 
	C662.163452,719.335510 554.425049,719.243164 446.687195,719.449707 
	C433.066315,719.475769 421.062103,716.211792 410.774353,707.245911 
	C398.597992,696.633972 393.035126,683.110535 393.051849,667.054077 
	C393.102997,617.894043 393.070557,568.733887 393.070221,519.573792 
	C393.069977,486.244904 392.984039,452.915771 393.095734,419.587250 
	C393.182739,393.633759 410.342529,373.096313 435.551331,368.502289 
	C437.664093,368.117249 439.853638,368.026031 442.008209,368.018738 
	C454.838715,367.975281 467.669373,367.996643 481.000000,367.996277 
M647.500000,448.998932 
	C630.932129,448.998932 614.364258,448.998932 597.945557,448.998932 
	C597.945557,490.203247 597.945557,530.640930 597.945557,571.266724 
	C633.659241,571.266724 669.086365,571.266724 704.666626,571.266724 
	C704.666626,530.453735 704.666626,489.896149 704.666626,448.998932 
	C685.764771,448.998932 667.132385,448.998932 647.500000,448.998932 
M478.256439,519.499939 
	C478.256439,536.626831 478.256439,553.753723 478.256439,571.200684 
	C514.044312,571.200684 549.438721,571.200684 585.007568,571.200684 
	C585.007568,530.467712 585.007568,489.915405 585.007568,449.310272 
	C549.361511,449.310272 513.981995,449.310272 478.256561,449.310272 
	C478.256561,472.580627 478.256561,495.540253 478.256439,519.499939 
M478.245758,603.500488 
	C478.245758,616.969727 478.245758,630.438965 478.245758,644.160645 
	C553.996704,644.160645 629.359131,644.160645 704.607788,644.160645 
	C704.607788,623.860718 704.607788,603.940247 704.607788,584.198120 
	C629.031616,584.198120 553.794739,584.198120 478.245392,584.198120 
	C478.245392,590.547363 478.245392,596.524109 478.245758,603.500488 
M638.500000,399.995239 
	C599.505981,399.995239 560.511719,399.909760 521.518127,400.038147 
	C506.330353,400.088135 494.192902,406.508209 485.516266,419.019897 
	C481.913177,424.215546 479.294525,429.916138 478.855713,436.508881 
	C554.095825,436.508881 628.961609,436.508881 703.868103,436.508881 
	C701.662964,418.763214 687.174377,403.156250 669.911316,401.028046 
	C659.884155,399.791901 649.644226,400.281952 638.500000,399.995239 
M1022.525024,589.536194 
	C1022.525024,607.954834 1022.525024,626.373474 1022.525024,644.761292 
	C1032.316772,644.761292 1041.420044,644.761292 1051.104736,644.761292 
	C1051.104736,629.873840 1051.104736,615.220886 1051.104736,599.615417 
	C1063.341797,614.264465 1074.836060,628.073547 1086.417725,641.809021 
	C1087.513916,643.109314 1089.136230,644.826965 1090.550293,644.861267 
	C1101.159668,645.118347 1111.777954,645.001282 1122.533691,645.001282 
	C1122.533691,622.296875 1122.533691,600.080872 1122.533691,577.801270 
	C1113.018921,577.801270 1103.807007,577.801270 1094.175293,577.801270 
	C1094.175293,592.602539 1094.175293,606.997253 1094.175293,622.481873 
	C1092.839478,620.964661 1092.217407,620.285645 1091.625366,619.581482 
	C1081.441772,607.468811 1071.044922,595.525757 1061.198486,583.144836 
	C1057.725342,578.777710 1054.161865,576.976074 1048.625244,577.269653 
	C1040.061646,577.723572 1031.456177,577.389221 1022.525269,577.389221 
	C1022.525269,581.602966 1022.525269,585.077393 1022.525024,589.536194 
M1287.195190,578.143982 
	C1266.587891,578.143982 1245.980713,578.143982 1225.112793,578.143982 
	C1225.112793,600.080017 1225.112793,622.303833 1225.112793,644.691772 
	C1234.444092,644.691772 1243.649048,644.691772 1253.185303,644.691772 
	C1253.185303,638.272522 1253.185303,632.161926 1253.185303,625.555237 
	C1257.625977,625.555237 1261.743286,625.554932 1265.860596,625.555298 
	C1282.160278,625.556763 1282.799927,626.072449 1288.391602,641.222412 
	C1288.951660,642.740051 1290.832642,644.779053 1292.172852,644.834595 
	C1300.290039,645.171631 1308.428223,645.002441 1316.856567,645.002441 
	C1313.788208,636.215027 1315.750488,625.440186 1304.180542,621.449829 
	C1305.150879,620.652039 1305.475586,620.269897 1305.888184,620.062683 
	C1314.624756,615.674377 1317.635376,608.229675 1316.880127,598.978638 
	C1316.126709,589.750793 1310.611450,584.131226 1302.176636,581.389648 
	C1297.621826,579.909241 1292.796021,579.261902 1287.195190,578.143982 
M977.405579,577.014343 
	C964.399719,575.362854 951.492188,575.452332 938.944824,579.780151 
	C924.141785,584.886047 916.388123,596.014954 916.559998,611.530457 
	C916.733215,627.163757 924.535645,638.292786 939.414062,642.934509 
	C955.190186,647.856384 971.263550,647.903748 987.086060,643.253357 
	C1003.190247,638.520142 1011.160889,627.241821 1011.056030,610.714111 
	C1010.955444,594.860535 1002.410767,583.775513 986.519958,579.019470 
	C983.820740,578.211731 981.023804,577.730835 977.405579,577.014343 
M1400.248779,581.104065 
	C1382.626831,574.468445 1364.744507,574.154907 1346.944824,579.853149 
	C1332.041016,584.624207 1324.369263,596.050598 1324.561768,611.569946 
	C1324.755859,627.214355 1332.559204,638.311401 1347.469971,642.947327 
	C1363.255371,647.855225 1379.321167,647.870239 1395.161133,643.232971 
	C1409.453247,639.048645 1417.818115,629.003113 1418.910156,615.607910 
	C1420.145264,600.460144 1415.179565,588.477783 1400.248779,581.104065 
M815.988037,617.420227 
	C818.033142,630.657654 826.000305,638.830383 838.331726,642.948792 
	C851.074219,647.204651 864.265686,647.488770 877.307495,645.221436 
	C883.869995,644.080505 890.431641,641.549561 896.344360,638.420288 
	C903.137634,634.824951 907.079407,628.446533 908.963013,620.443115 
	C899.593140,620.443115 890.782349,620.394348 881.973511,620.501343 
	C880.794495,620.515686 879.187866,620.970703 878.520874,621.810608 
	C873.517944,628.111145 866.691528,628.676880 859.513367,628.098389 
	C848.096741,627.178345 841.266663,616.870300 844.723877,605.922607 
	C848.558350,593.780518 867.689941,589.869202 877.131409,599.255615 
	C878.229065,600.346924 879.623962,601.886047 880.913330,601.918091 
	C890.154785,602.147644 899.404602,602.040771 909.042664,602.040771 
	C905.915588,590.615234 898.791199,583.717834 888.457886,580.069885 
	C874.269592,575.060913 859.702515,574.966980 845.123657,577.872375 
	C823.723267,582.137207 814.100830,595.068420 815.988037,617.420227 
M1187.928467,641.303833 
	C1187.928467,625.702332 1187.928467,610.100891 1187.928467,593.942932 
	C1197.013428,593.942932 1205.571411,593.942932 1214.047119,593.942932 
	C1214.047119,588.237061 1214.047119,583.095642 1214.047119,577.751221 
	C1186.991943,577.751221 1160.127075,577.751221 1133.347046,577.751221 
	C1133.347046,583.373535 1133.347046,588.628052 1133.347046,594.228149 
	C1142.101807,594.228149 1150.547974,594.228149 1159.544189,594.228149 
	C1159.544189,611.305359 1159.544189,628.036438 1159.544189,645.005676 
	C1168.422852,645.005676 1176.744995,645.096008 1185.059326,644.884949 
	C1186.036987,644.860107 1186.972412,643.177917 1187.928467,641.303833 
M1508.192627,628.289307 
	C1491.924316,628.289307 1475.656128,628.289307 1458.800293,628.289307 
	C1458.800293,611.095764 1458.800293,594.410889 1458.800293,577.700500 
	C1449.135864,577.700500 1440.066040,577.700500 1430.783203,577.700500 
	C1430.783203,600.240356 1430.783203,622.472107 1430.783203,644.644287 
	C1457.074463,644.644287 1483.109741,644.644287 1508.963501,644.644287 
	C1508.963501,639.138794 1508.963501,633.995300 1508.192627,628.289307 
M523.463989,687.198547 
	C526.699768,687.198547 529.935547,687.198547 533.017578,687.198547 
	C533.017578,676.747864 533.017578,667.055481 533.017578,657.555603 
	C522.740356,657.555603 512.874146,657.555603 503.165344,657.555603 
	C503.165344,667.652954 503.165344,677.353943 503.165344,687.198608 
	C509.861481,687.198608 516.167358,687.198608 523.463989,687.198547 
M649.858521,684.400757 
	C650.460571,685.328491 651.048035,687.053345 651.666809,687.064636 
	C661.064148,687.236572 670.465576,687.184021 679.839966,687.184021 
	C679.839966,676.895142 679.839966,667.200195 679.839966,657.405273 
	C669.784485,657.405273 660.063599,657.405273 649.857178,657.405273 
	C649.857178,666.229553 649.857178,674.821228 649.858521,684.400757 
M457.482788,522.538391 
	C460.254883,522.538391 463.027008,522.538391 465.747803,522.538391 
	C465.747803,507.887543 465.747803,493.850311 465.747803,479.773560 
	C459.691986,479.773560 453.958374,479.773560 448.302917,479.773560 
	C448.302917,494.125153 448.302917,508.162567 448.302917,522.538147 
	C451.251617,522.538147 453.887665,522.538147 457.482788,522.538391 
M722.662842,522.538391 
	C724.989197,522.538025 727.317383,522.479309 729.641541,522.550415 
	C733.549194,522.669800 735.420227,521.104431 735.246887,516.929321 
	C735.012695,511.289337 735.189514,505.632233 735.189697,499.982483 
	C735.189880,493.250916 735.189758,486.519348 735.189758,479.813995 
	C728.747437,479.813995 723.021301,479.813995 717.226685,479.813995 
	C717.226685,494.094299 717.226685,508.021729 717.226685,522.288391 
	C718.823608,522.376770 720.280212,522.457458 722.662842,522.538391 
z"/>
<path fill="#020202" opacity="1.000000" stroke="none" 
	d="
M1258.001465,398.987732 
	C1270.609131,414.012451 1283.003662,428.754456 1296.359009,444.639099 
	C1296.359009,424.622009 1296.359009,405.970551 1296.359009,387.173065 
	C1308.674194,387.173065 1320.311646,387.173065 1332.319336,387.173065 
	C1332.319336,415.592957 1332.319336,443.978210 1332.319336,473.003510 
	C1323.139282,473.003510 1313.799805,472.243317 1304.639893,473.200714 
	C1293.787354,474.334991 1286.626831,470.742493 1280.059692,461.901550 
	C1269.150513,447.215057 1256.801758,433.597412 1245.047119,419.539703 
	C1244.031372,418.325012 1242.925293,417.186035 1241.249756,415.337463 
	C1241.249756,434.966553 1241.249756,453.693146 1241.249756,472.710388 
	C1229.145386,472.710388 1217.397339,472.710388 1205.341675,472.710388 
	C1205.341675,444.398132 1205.341675,416.000153 1205.341675,387.018799 
	C1214.726440,387.018799 1224.281738,387.963043 1233.564819,386.776703 
	C1244.829346,385.337036 1252.250488,389.579926 1258.001465,398.987732 
z"/>
<path fill="#010101" opacity="1.000000" stroke="none" 
	d="
M964.084595,459.024719 
	C964.084595,463.826691 964.084595,468.134247 964.084595,472.721008 
	C952.123901,472.721008 940.382874,472.721008 928.338806,472.721008 
	C928.338806,444.403503 928.338806,416.020538 928.338806,387.577972 
	C928.527588,387.449524 928.791687,387.112152 929.052246,387.114899 
	C955.018860,387.386139 980.995911,387.350952 1006.944641,388.190948 
	C1014.257019,388.427704 1021.704834,390.599915 1028.702515,393.010498 
	C1039.332397,396.672211 1044.873169,404.640167 1045.312378,416.067841 
	C1045.749268,427.437897 1041.724609,436.182220 1031.152344,441.325317 
	C1030.471313,441.656555 1029.843262,442.096924 1028.521606,442.885986 
	C1043.967163,447.722351 1041.315186,461.819580 1045.198120,473.001068 
	C1034.376099,473.001068 1023.895264,473.108032 1013.422668,472.862946 
	C1012.142639,472.833008 1010.329407,471.159485 1009.762817,469.823669 
	C1008.281860,466.332336 1007.387939,462.595184 1006.199890,458.975739 
	C1004.293945,453.169281 1000.076538,449.440430 994.227661,449.100922 
	C984.465759,448.534271 974.647034,448.946289 964.084595,448.946289 
	C964.084595,451.703217 964.084595,455.116730 964.084595,459.024719 
M994.758484,408.761658 
	C984.674927,408.761658 974.591309,408.761658 964.401978,408.761658 
	C964.401978,414.774261 964.401978,420.804688 964.401978,426.817871 
	C974.032104,426.817871 983.338440,427.025635 992.627930,426.719482 
	C996.554321,426.590057 1000.734985,426.018250 1004.246033,424.425903 
	C1006.440552,423.430664 1008.355774,420.362976 1009.042908,417.854553 
	C1009.985596,414.413574 1007.761230,411.746185 1004.353455,410.705017 
	C1001.522888,409.840149 998.549927,409.441132 994.758484,408.761658 
z"/>
<path fill="#020202" opacity="1.000000" stroke="none" 
	d="
M1391.286865,409.764832 
	C1388.788574,411.575195 1386.667114,413.233856 1384.545654,414.892517 
	C1384.681763,415.424286 1384.817993,415.956085 1384.954102,416.487854 
	C1387.797852,417.002289 1390.624146,417.662750 1393.488403,418.005371 
	C1404.881958,419.368286 1416.289551,420.614441 1427.685669,421.956512 
	C1428.993652,422.110535 1430.277100,422.548096 1431.547607,422.933899 
	C1440.030396,425.509521 1448.504395,428.625214 1450.398438,438.564331 
	C1452.313232,448.613312 1447.417969,456.717957 1440.428345,463.385315 
	C1434.222900,469.304626 1426.299561,471.960327 1417.954468,473.327728 
	C1403.001709,475.777893 1388.065430,475.832336 1373.363281,471.914246 
	C1360.063477,468.369904 1350.726929,460.412506 1347.070312,445.765259 
	C1351.705078,445.765259 1356.082275,445.765259 1360.459351,445.765259 
	C1365.957520,445.765259 1371.456299,445.813354 1376.953735,445.750153 
	C1381.406128,445.698975 1385.266357,446.031952 1389.293457,449.157440 
	C1396.641235,454.859955 1409.114746,451.729034 1412.975098,443.118927 
	C1407.673096,442.398041 1402.698608,441.671326 1397.710693,441.053986 
	C1387.322144,439.768188 1376.837158,439.026184 1366.560303,437.141846 
	C1357.596069,435.498260 1349.233032,431.568481 1347.302979,421.472229 
	C1345.302734,411.007629 1350.401855,402.665863 1358.003662,396.009674 
	C1364.430908,390.382050 1372.404907,387.905579 1380.756958,386.656525 
	C1395.226440,384.492737 1409.684692,384.420471 1423.884888,388.171783 
	C1437.297852,391.715057 1446.845215,399.603912 1450.449707,414.466797 
	C1437.891602,414.466797 1425.811646,414.483856 1413.732300,414.424774 
	C1413.000732,414.421204 1412.097656,413.986572 1411.569092,413.457825 
	C1405.784302,407.670502 1398.959595,407.464539 1391.286865,409.764832 
z"/>
<path fill="#020202" opacity="1.000000" stroke="none" 
	d="
M1102.885864,444.362000 
	C1097.933594,452.785950 1092.856445,461.140442 1088.105469,469.676453 
	C1086.691406,472.217163 1085.171387,473.127533 1082.289429,473.074799 
	C1072.304321,472.892029 1062.313721,473.004272 1051.765625,473.004272 
	C1052.308228,471.759613 1052.599854,470.743256 1053.145752,469.889282 
	C1070.152466,443.282715 1087.141602,416.664581 1104.318726,390.168243 
	C1105.324463,388.616913 1107.849731,387.258331 1109.716675,387.192688 
	C1118.531250,386.882721 1127.365479,386.937897 1136.185425,387.158508 
	C1137.832031,387.199677 1140.139038,388.143799 1140.971069,389.428894 
	C1158.583130,416.631653 1176.028687,443.942169 1193.491821,471.241272 
	C1193.726929,471.608887 1193.769287,472.099884 1194.045044,473.001862 
	C1182.663696,473.001862 1171.573730,473.088562 1160.489502,472.875061 
	C1159.310425,472.852356 1157.786133,471.295837 1157.065796,470.071930 
	C1152.181152,461.772217 1147.469604,453.370697 1142.400391,444.638519 
	C1142.098633,444.274994 1141.855225,444.070801 1141.802490,443.724121 
	C1135.400635,432.273071 1129.051270,421.168671 1122.267334,409.304169 
	C1115.503906,421.593353 1109.197876,433.051361 1102.910156,444.471741 
	C1102.928589,444.434052 1102.885864,444.361969 1102.885864,444.362000 
z"/>
<path fill="#010101" opacity="1.000000" stroke="none" 
	d="
M845.161072,427.000549 
	C845.161072,420.551300 845.161072,414.601929 845.161072,408.332642 
	C833.877686,408.332642 823.104736,408.332642 811.993896,408.332642 
	C811.993896,401.272247 811.993896,394.526764 811.993896,387.399048 
	C845.980835,387.399048 880.181946,387.399048 914.692200,387.399048 
	C914.692200,394.097076 914.692200,400.977356 914.692200,408.263489 
	C903.657593,408.263489 892.739990,408.263489 881.445679,408.263489 
	C881.445679,429.914062 881.445679,451.168823 881.445679,472.711853 
	C869.308289,472.711853 857.551208,472.711853 845.161072,472.711853 
	C845.161072,457.686462 845.161072,442.593445 845.161072,427.000549 
z"/>
<path fill="#FF0404" opacity="1.000000" stroke="none" 
	d="
M1103.014404,444.728424 
	C1102.885864,444.361969 1102.928589,444.434052 1103.337158,444.236084 
	C1116.448853,444.049011 1129.151978,444.059906 1141.855225,444.070801 
	C1141.855225,444.070801 1142.098633,444.274994 1142.102417,444.433838 
	C1135.647461,455.626282 1129.188721,466.659912 1122.362183,478.321777 
	C1115.823242,467.016968 1109.483032,456.055939 1103.014404,444.728424 
z"/>

<path fill="#FF0E0E" opacity="1.000000" stroke="none" 
	d="
M628.937866,632.857056 
	C602.131836,632.856995 575.815857,632.862610 549.499878,632.843872 
	C547.844543,632.842712 546.131042,632.889526 544.546143,632.500488 
	C541.229492,631.686401 538.850830,629.312012 539.928589,626.027222 
	C540.648071,623.834290 543.315735,622.189941 545.326355,620.565979 
	C545.937805,620.072083 547.264404,620.451172 548.263428,620.451050 
	C577.077759,620.448914 605.892090,620.449341 634.706421,620.450562 
	C635.705688,620.450623 636.711365,620.393555 637.703003,620.484497 
	C641.200684,620.805298 643.264465,622.889709 643.549011,626.233765 
	C643.847839,629.744629 641.649353,631.968201 638.383667,632.521667 
	C635.463440,633.016663 632.418091,632.774170 628.937866,632.857056 
z"/>
<path fill="#FF0101" opacity="1.000000" stroke="none" 
	d="
M625.983398,596.009216 
	C629.640137,596.009277 632.800842,595.979797 635.960693,596.016174 
	C640.678040,596.070496 643.469727,598.298828 643.569763,602.028259 
	C643.665833,605.607788 640.727600,608.116394 636.043457,608.127075 
	C614.919434,608.175110 593.795288,608.149963 572.671143,608.150757 
	C564.354553,608.151062 556.037781,608.184021 547.721436,608.138245 
	C542.367188,608.108765 539.732239,606.063721 539.726196,602.104126 
	C539.720032,598.086121 542.354065,596.018921 547.643677,596.015930 
	C573.591431,596.001221 599.539185,596.009216 625.983398,596.009216 
z"/>
<path fill="#FF0606" opacity="1.000000" stroke="none" 
	d="
M658.374390,623.384644 
	C654.608948,615.801086 654.972473,608.737976 660.324890,602.630249 
	C665.241943,597.019409 671.623962,594.377441 679.143311,596.782349 
	C687.000610,599.295410 691.594177,604.726929 692.474060,613.062073 
	C693.287415,620.766357 688.213013,628.628418 680.660156,631.415527 
	C672.219055,634.530334 664.598450,631.867554 658.374390,623.384644 
M675.227783,608.436462 
	C671.285095,608.184448 668.674133,610.046265 668.249451,613.880554 
	C667.867981,617.325256 670.095215,619.973389 673.396545,619.913513 
	C675.578430,619.873840 678.754089,618.268005 679.659485,616.452820 
	C681.320923,613.121887 679.886780,609.993652 675.227783,608.436462 
z"/>
<path fill="#FF0606" opacity="1.000000" stroke="none" 
	d="
M525.858643,621.419067 
	C518.387268,634.096802 504.084900,636.351685 495.368286,626.579468 
	C489.700043,620.224670 489.140137,610.126343 494.092438,603.568665 
	C499.493164,596.417175 508.854523,594.086670 516.810242,597.913147 
	C524.807556,601.759644 528.743652,610.281860 526.606567,619.153259 
	C526.451660,619.796326 526.197144,620.415283 525.858643,621.419067 
M507.848877,608.452332 
	C502.547424,610.976501 501.055206,616.055054 505.147095,618.623840 
	C506.889893,619.718018 510.079376,619.941650 511.885498,619.065125 
	C513.437927,618.311584 514.793518,615.412415 514.751587,613.494385 
	C514.676086,610.035828 511.892975,608.548584 507.848877,608.452332 
z"/>
<path fill="#FF0606" opacity="1.000000" stroke="none" 
	d="
M586.040527,412.160339 
	C592.670471,412.160736 598.808655,412.228516 604.944458,412.138489 
	C609.251953,412.075317 612.034424,413.863678 612.466187,418.261078 
	C612.816223,421.827026 609.779846,424.411530 605.066345,424.475983 
	C595.945312,424.600739 586.819824,424.607086 577.699158,424.468231 
	C573.007751,424.396820 570.008057,421.747437 570.416077,418.131927 
	C570.914612,413.714569 573.841736,412.025879 578.083862,412.148193 
	C580.569824,412.219910 583.059631,412.160675 586.040527,412.160339 
z"/>
<path fill="#FF0606" opacity="1.000000" stroke="none" 
	d="
M1285.435791,596.311401 
	C1286.612793,598.792480 1288.694946,601.649414 1287.975464,603.236633 
	C1287.030518,605.321655 1283.989380,607.493958 1281.657227,607.730286 
	C1272.418945,608.666809 1263.105591,608.862915 1253.424438,609.353394 
	C1253.424438,604.017029 1253.424438,599.315247 1253.424438,593.240906 
	C1264.100464,594.212219 1274.597412,595.167236 1285.435791,596.311401 
z"/>
<path fill="#FF0404" opacity="1.000000" stroke="none" 
	d="
M975.613281,597.186279 
	C983.050415,603.772095 984.770020,612.586914 980.380127,620.172424 
	C976.171936,627.443970 965.818726,630.423035 956.012634,627.184204 
	C948.689453,624.765442 944.641907,618.565613 944.960449,610.255432 
	C945.248840,602.734253 949.861206,596.809570 956.971619,595.026611 
	C963.296204,593.440674 969.465881,593.728638 975.613281,597.186279 
z"/>
<path fill="#FF0404" opacity="1.000000" stroke="none" 
	d="
M1372.905029,628.218994 
	C1354.837524,629.075745 1350.477051,614.383240 1353.998291,604.905457 
	C1357.457031,595.595215 1369.174561,591.426208 1380.257324,595.524841 
	C1388.696899,598.645935 1392.987427,608.400940 1389.665405,617.411926 
	C1386.905640,624.897705 1381.066284,628.033936 1372.905029,628.218994 
z"/>
</svg>